<svg width="20" height="20" viewBox="0 0 20 20" fill="none" xmlns="http://www.w3.org/2000/svg">
<path d="M14.6083 6.475C14.55 6.46667 14.4917 6.46667 14.4333 6.475C13.1417 6.43333 12.1167 5.375 12.1167 4.075C12.1167 2.75 13.1917 1.66667 14.525 1.66667C15.85 1.66667 16.9333 2.74167 16.9333 4.075C16.925 5.375 15.9 6.43333 14.6083 6.475Z" fill="#768394"/>
<path d="M17.325 12.25C16.3917 12.875 15.0833 13.1083 13.875 12.95C14.1917 12.2667 14.3583 11.5083 14.3667 10.7083C14.3667 9.875 14.1833 9.08333 13.8333 8.39167C15.0667 8.225 16.375 8.45833 17.3167 9.08333C18.6333 9.95 18.6333 11.375 17.325 12.25Z" fill="#768394"/>
<path d="M5.36667 6.475C5.425 6.46667 5.48333 6.46667 5.54167 6.475C6.83333 6.43333 7.85833 5.375 7.85833 4.075C7.85833 2.74167 6.78333 1.66667 5.45 1.66667C4.125 1.66667 3.05 2.74167 3.05 4.075C3.05 5.375 4.075 6.43333 5.36667 6.475Z" fill="#768394"/>
<path d="M5.45833 10.7083C5.45833 11.5167 5.63333 12.2833 5.95 12.975C4.775 13.1 3.55 12.85 2.65 12.2583C1.33333 11.3833 1.33333 9.95833 2.65 9.08333C3.54167 8.48333 4.8 8.24167 5.98333 8.375C5.64167 9.075 5.45833 9.86667 5.45833 10.7083Z" fill="#768394"/>
<path d="M10.1 13.225C10.0333 13.2167 9.95833 13.2167 9.88333 13.225C8.35 13.175 7.125 11.9167 7.125 10.3667C7.13333 8.78333 8.40833 7.5 10 7.5C11.5833 7.5 12.8667 8.78333 12.8667 10.3667C12.8583 11.9167 11.6417 13.175 10.1 13.225Z" fill="#768394"/>
<path d="M7.39167 14.95C6.13333 15.7917 6.13333 17.175 7.39167 18.0083C8.825 18.9667 11.175 18.9667 12.6083 18.0083C13.8667 17.1667 13.8667 15.7833 12.6083 14.95C11.1833 13.9917 8.83333 13.9917 7.39167 14.95Z" fill="#768394"/>
</svg>
