<svg width="32" height="22" viewBox="0 0 32 22" fill="none" xmlns="http://www.w3.org/2000/svg">
<path d="M29.139 4.14987C24.9124 -2.79422 18.5453 2.03687 18.5453 2.03687C18.1324 2.34896 17.3709 2.60555 16.8536 2.60674L15.1481 2.60793C14.6308 2.60853 13.8694 2.35194 13.457 2.03985C13.457 2.03985 7.08936 -2.79243 2.86215 4.15166C-1.36385 11.0934 0.3392 18.6533 0.3392 18.6533C0.637562 20.5043 1.62097 21.7395 3.47678 21.5844C5.32723 21.4298 9.34379 16.5994 9.34379 16.5994C9.67557 16.2013 10.3708 15.8761 10.8869 15.8761L21.1112 15.8743C21.628 15.8743 22.3226 16.1996 22.6537 16.5976C22.6537 16.5976 26.6709 21.4281 28.5243 21.5826C30.3778 21.7378 31.3636 20.5013 31.6601 18.6515C31.6595 18.6515 33.3656 11.0928 29.139 4.14987ZM12.1579 9.80206H9.96558V11.9151C9.96558 11.9151 9.50132 12.2695 8.78287 12.2606C8.0656 12.2498 7.74098 11.8739 7.74098 11.8739V9.80265H5.67034C5.67034 9.80265 5.41196 9.53771 5.34274 8.84014C5.27472 8.14256 5.62857 7.57866 5.62857 7.57866H7.82154V5.38629C7.82154 5.38629 8.27266 5.14461 8.9213 5.16311C9.31018 5.17489 9.69272 5.26479 10.0461 5.42746L10.0372 7.57806H12.1078C12.1078 7.57806 12.4694 8.04231 12.4993 8.60324C12.5291 9.16475 12.1579 9.80206 12.1579 9.80206ZM22.214 12.2104C21.9861 12.2106 21.7604 12.1658 21.5499 12.0786C21.3394 11.9915 21.1481 11.8637 20.987 11.7025C20.8259 11.5413 20.6982 11.3499 20.6112 11.1393C20.5242 10.9287 20.4796 10.703 20.4799 10.4752C20.4794 10.2473 20.5239 10.0215 20.6109 9.81082C20.6979 9.60015 20.8256 9.40872 20.9867 9.24751C21.1478 9.08629 21.3391 8.95847 21.5497 8.87136C21.7603 8.78425 21.986 8.73957 22.214 8.73989C22.4457 8.73381 22.6763 8.7742 22.8921 8.85867C23.1079 8.94315 23.3047 9.06999 23.4707 9.23173C23.6368 9.39346 23.7687 9.58682 23.8588 9.80037C23.9489 10.0139 23.9953 10.2434 23.9953 10.4752C23.9953 10.707 23.9489 10.9364 23.8588 11.15C23.7687 11.3635 23.6368 11.5569 23.4707 11.7186C23.3047 11.8803 23.1079 12.0072 22.8921 12.0917C22.6763 12.1761 22.4457 12.2165 22.214 12.2104ZM22.214 7.43604C21.9861 7.43628 21.7605 7.39156 21.5499 7.30446C21.3394 7.21736 21.1481 7.08959 20.987 6.92845C20.826 6.76732 20.6983 6.57599 20.6112 6.36543C20.5242 6.15486 20.4796 5.9292 20.4799 5.70136C20.4794 5.47345 20.5239 5.24768 20.6109 5.03702C20.6979 4.82635 20.8256 4.63492 20.9867 4.4737C21.1478 4.31249 21.3391 4.18466 21.5497 4.09755C21.7603 4.01045 21.986 3.96577 22.214 3.96608C22.6742 3.96608 23.1157 4.14889 23.4412 4.4743C23.7667 4.79971 23.9497 5.24108 23.9498 5.70136C23.9494 6.16149 23.7663 6.60261 23.4408 6.92786C23.1153 7.25311 22.6741 7.43588 22.214 7.43604ZM26.5354 9.99898C26.3076 9.99921 26.0819 9.95448 25.8713 9.86734C25.6607 9.78021 25.4694 9.65238 25.3083 9.49118C25.1472 9.32998 25.0195 9.13858 24.9325 8.92795C24.8455 8.71732 24.801 8.49159 24.8014 8.2637C24.801 8.03581 24.8455 7.81008 24.9325 7.59945C25.0195 7.38882 25.1472 7.19742 25.3083 7.03622C25.4694 6.87502 25.6607 6.74719 25.8713 6.66005C26.0819 6.57292 26.3076 6.52819 26.5354 6.52842C26.9957 6.52858 27.437 6.71143 27.7625 7.03681C28.088 7.36219 28.271 7.80347 28.2713 8.2637C28.271 8.72393 28.088 9.16521 27.7625 9.49059C27.437 9.81596 26.9957 9.99882 26.5354 9.99898Z" fill="#768394"/>
</svg>
