<svg width="275" height="54" viewBox="0 0 275 54" fill="none" xmlns="http://www.w3.org/2000/svg">
<path d="M18 22.16V21.38C19.6 20.62 20.4 18.72 20.4 15.68C20.4 13.84 20.24 12.48 19.92 11.6C19.6 10.68 19.04 10.06 18.24 9.74C17.48 9.42 16.4 9.26 15 9.26H3.3L0 0.799998H17.04C20.56 0.799998 23.5 1.26 25.86 2.18C28.22 3.06 29.98 4.56 31.14 6.68C32.34 8.76 32.94 11.62 32.94 15.26C32.94 19.46 32.02 22.68 30.18 24.92L34.68 44H22.68L18 22.16ZM15 44H3.3V12.26H15V44ZM51.1945 20.42C51.1945 19.26 50.7945 18.48 49.9945 18.08C49.1945 17.64 48.1745 17.42 46.9345 17.42C45.4145 17.42 43.9545 17.56 42.5545 17.84C41.1545 18.12 39.7545 18.52 38.3545 19.04V10.64C40.1545 10.24 42.0145 9.88 43.9345 9.56C45.8945 9.2 47.8545 9.02 49.8145 9.02C52.0145 9.02 54.0345 9.3 55.8745 9.86C57.7145 10.38 59.1945 11.34 60.3145 12.74C61.4345 14.14 61.9945 16.14 61.9945 18.74V44H52.6345L51.1945 38.84V20.42ZM48.1945 36.56V43.94C47.1545 44.38 46.0345 44.6 44.8345 44.6C43.2345 44.6 41.7345 44.2 40.3345 43.4C38.9345 42.56 37.7945 41.36 36.9145 39.8C36.0345 38.24 35.5945 36.36 35.5945 34.16C35.5945 30.8 36.7545 28.24 39.0745 26.48C41.4345 24.68 44.4745 23.76 48.1945 23.72V30.08C47.5545 30.36 47.0345 30.76 46.6345 31.28C46.2745 31.76 46.0945 32.38 46.0945 33.14C46.0945 34.06 46.2945 34.82 46.6945 35.42C47.0945 35.98 47.5945 36.36 48.1945 36.56ZM76.8356 19.4L71.6156 44L63.8156 9.5H74.7956L76.8356 19.4ZM99.2756 44H89.7956L86.7356 27.56L83.8556 44H74.7956L81.6956 9.5H92.4356L99.2756 44ZM102.036 42.98L97.7756 21.08L99.2756 9.5H110.196L102.036 42.98ZM134.469 35.12H128.409L108.429 0.799998H123.309L131.709 18.86L140.109 0.799998H151.809L134.469 35.12ZM139.749 31.04L151.149 8.36V44H139.749V31.04ZM112.329 13.04L123.729 33.2V44H112.329V13.04ZM170.081 20.42C170.081 19.26 169.681 18.48 168.881 18.08C168.081 17.64 167.061 17.42 165.821 17.42C164.301 17.42 162.841 17.56 161.441 17.84C160.041 18.12 158.641 18.52 157.241 19.04V10.64C159.041 10.24 160.901 9.88 162.821 9.56C164.781 9.2 166.741 9.02 168.701 9.02C170.901 9.02 172.921 9.3 174.761 9.86C176.601 10.38 178.081 11.34 179.201 12.74C180.321 14.14 180.881 16.14 180.881 18.74V44H171.521L170.081 38.84V20.42ZM167.081 36.56V43.94C166.041 44.38 164.921 44.6 163.721 44.6C162.121 44.6 160.621 44.2 159.221 43.4C157.821 42.56 156.681 41.36 155.801 39.8C154.921 38.24 154.481 36.36 154.481 34.16C154.481 30.8 155.641 28.24 157.961 26.48C160.321 24.68 163.361 23.76 167.081 23.72V30.08C166.441 30.36 165.921 30.76 165.521 31.28C165.161 31.76 164.981 32.38 164.981 33.14C164.981 34.06 165.181 34.82 165.581 35.42C165.981 35.98 166.481 36.36 167.081 36.56ZM199.188 17.48V9.68C200.508 9.24 201.788 9.02 203.028 9.02C205.788 9.02 208.068 9.88 209.868 11.6C211.708 13.32 212.628 15.9 212.628 19.34V44H201.828V21.08C201.828 18.92 200.948 17.72 199.188 17.48ZM196.188 14.12V44H185.388V9.5H194.568L196.188 14.12ZM231.066 9.44V17.42C229.466 17.58 228.446 18.4 228.006 19.88C227.566 21.32 227.346 23.46 227.346 26.3C227.346 29.02 227.586 30.96 228.066 32.12C228.546 33.24 229.446 33.8 230.766 33.8H231.066V40.88C229.866 41.36 228.546 41.6 227.106 41.6C224.946 41.6 223.146 41.18 221.706 40.34C220.306 39.46 219.206 38.28 218.406 36.8C217.606 35.28 217.026 33.58 216.666 31.7C216.346 29.78 216.186 27.78 216.186 25.7C216.186 19.7 217.186 15.42 219.186 12.86C221.226 10.3 224.166 9.02 228.006 9.02C228.566 9.02 229.086 9.06 229.566 9.14C230.086 9.22 230.586 9.32 231.066 9.44ZM234.066 14.36L235.686 9.5H244.866V39.8C244.866 44.4 243.706 47.84 241.386 50.12C239.106 52.44 235.846 53.6 231.606 53.6C229.966 53.6 228.346 53.52 226.746 53.36C225.146 53.24 223.826 53.1 222.786 52.94C221.746 52.82 221.226 52.76 221.226 52.76V44.6C222.586 44.76 223.826 44.88 224.946 44.96C226.106 45.08 227.306 45.14 228.546 45.14C230.306 45.14 231.666 44.8 232.626 44.12C233.586 43.48 234.066 42.42 234.066 40.94V14.36ZM264.066 20.42C264.066 19.26 263.666 18.48 262.866 18.08C262.066 17.64 261.046 17.42 259.806 17.42C258.286 17.42 256.826 17.56 255.426 17.84C254.026 18.12 252.626 18.52 251.226 19.04V10.64C253.026 10.24 254.886 9.88 256.806 9.56C258.766 9.2 260.726 9.02 262.686 9.02C264.886 9.02 266.906 9.3 268.746 9.86C270.586 10.38 272.066 11.34 273.186 12.74C274.306 14.14 274.866 16.14 274.866 18.74V44H265.506L264.066 38.84V20.42ZM261.066 36.56V43.94C260.026 44.38 258.906 44.6 257.706 44.6C256.106 44.6 254.606 44.2 253.206 43.4C251.806 42.56 250.666 41.36 249.786 39.8C248.906 38.24 248.466 36.36 248.466 34.16C248.466 30.8 249.626 28.24 251.946 26.48C254.306 24.68 257.346 23.76 261.066 23.72V30.08C260.426 30.36 259.906 30.76 259.506 31.28C259.146 31.76 258.966 32.38 258.966 33.14C258.966 34.06 259.166 34.82 259.566 35.42C259.966 35.98 260.466 36.36 261.066 36.56Z" fill="url(#paint0_linear_323_2896)"/>
<defs>
<linearGradient id="paint0_linear_323_2896" x1="330" y1="-14" x2="330" y2="23" gradientUnits="userSpaceOnUse">
<stop offset="0.535" stop-color="#DC781C"/>
<stop offset="1" stop-color="#C93677"/>
</linearGradient>
</defs>
</svg>
