<svg width="32" height="30" viewBox="0 0 32 30" fill="none" xmlns="http://www.w3.org/2000/svg">
<path d="M8.33436 23.5003C7.29036 23.4984 6.27323 23.1692 5.42607 22.5591C4.57891 21.949 3.94436 21.0886 3.61169 20.099L3.56503 19.9457C3.41568 19.4783 3.33791 18.991 3.33436 18.5003V9.40966L0.0996939 20.207C-0.0982775 20.9753 0.0132065 21.7906 0.410166 22.4776C0.807126 23.1645 1.45785 23.6682 2.22236 23.8803L22.8397 29.4017C23.097 29.4683 23.3544 29.5003 23.6077 29.5003C24.9357 29.5003 26.149 28.619 26.489 27.3203L27.6904 23.5003H8.33436ZM12.001 9.50033C13.4717 9.50033 14.6677 8.30433 14.6677 6.83366C14.6677 5.36299 13.4717 4.16699 12.001 4.16699C10.5304 4.16699 9.33436 5.36299 9.33436 6.83366C9.33436 8.30433 10.5304 9.50033 12.001 9.50033Z" fill="#768394"/>
<path d="M28.6693 0.166992H8.66927C7.78554 0.168051 6.93831 0.51958 6.31342 1.14447C5.68853 1.76936 5.337 2.6166 5.33594 3.50033V18.167C5.33594 20.0043 6.83194 21.5003 8.66927 21.5003H28.6693C30.5066 21.5003 32.0026 20.0043 32.0026 18.167V3.50033C32.0026 1.66299 30.5066 0.166992 28.6693 0.166992ZM8.66927 2.83366H28.6693C28.8461 2.83366 29.0156 2.9039 29.1407 3.02892C29.2657 3.15395 29.3359 3.32351 29.3359 3.50033V12.9657L25.1239 8.05099C24.9012 7.79517 24.6266 7.58973 24.3183 7.44834C24.01 7.30695 23.6751 7.23286 23.3359 7.23099C22.9956 7.23275 22.6598 7.30898 22.3521 7.45432C22.0443 7.59966 21.7721 7.8106 21.5546 8.07233L16.6026 14.0163L14.9893 12.407C14.5505 11.969 13.9559 11.7229 13.3359 11.7229C12.716 11.7229 12.1213 11.969 11.6826 12.407L8.0026 16.0857V3.50033C8.0026 3.32351 8.07284 3.15395 8.19787 3.02892C8.32289 2.9039 8.49246 2.83366 8.66927 2.83366Z" fill="#768394"/>
</svg>
