<svg width="28" height="26" viewBox="0 0 28 26" fill="none" xmlns="http://www.w3.org/2000/svg">
<rect x="27" y="-1" width="26" height="26" rx="13" transform="rotate(90 27 -1)" fill="#768394"/>
<rect x="27" y="-1" width="26" height="26" rx="13" transform="rotate(90 27 -1)" stroke="white" stroke-width="2"/>
<path d="M10.6666 7.99999L10.6666 5.99999C10.6666 5.63181 10.9651 5.33333 11.3333 5.33333L16.6666 5.33333C17.0348 5.33333 17.3333 5.63181 17.3333 5.99999L17.3333 7.99999L20.6666 7.99999L20.6666 9.33333L19.3333 9.33333L19.3333 18C19.3333 18.3682 19.0348 18.6667 18.6666 18.6667L9.33325 18.6667C8.96507 18.6667 8.66659 18.3682 8.66659 18L8.66659 9.33333L7.33325 9.33333L7.33325 7.99999L10.6666 7.99999ZM14.9427 13.3331L16.1213 12.1547L15.1785 11.2119L13.9999 12.3903L12.8214 11.2119L11.8786 12.1547L13.0571 13.3331L11.8786 14.5117L12.8214 15.4545L13.9999 14.2759L15.1785 15.4545L16.1213 14.5117L14.9427 13.3331ZM11.9999 6.66666L11.9999 7.99999L15.9999 7.99999L15.9999 6.66666L11.9999 6.66666Z" fill="white"/>
</svg>
