<svg width="20" height="20" viewBox="0 0 20 20" fill="none" xmlns="http://www.w3.org/2000/svg">
<path d="M17.7084 7.62506C15.7834 4.60006 12.9667 2.8584 10.0001 2.8584C8.51675 2.8584 7.07508 3.29173 5.75841 4.10007C4.44175 4.91673 3.25841 6.1084 2.29175 7.62506C1.45841 8.9334 1.45841 11.0584 2.29175 12.3667C4.21675 15.4001 7.03341 17.1334 10.0001 17.1334C11.4834 17.1334 12.9251 16.7001 14.2417 15.8917C15.5584 15.0751 16.7417 13.8834 17.7084 12.3667C18.5417 11.0667 18.5417 8.9334 17.7084 7.62506ZM10.0001 13.3667C8.13342 13.3667 6.63341 11.8584 6.63341 10.0001C6.63341 8.14173 8.13342 6.6334 10.0001 6.6334C11.8667 6.6334 13.3667 8.14173 13.3667 10.0001C13.3667 11.8584 11.8667 13.3667 10.0001 13.3667Z" fill="#768394"/>
<path d="M10.0001 7.61673C8.69175 7.61673 7.62508 8.6834 7.62508 10.0001C7.62508 11.3084 8.69175 12.3751 10.0001 12.3751C11.3084 12.3751 12.3834 11.3084 12.3834 10.0001C12.3834 8.69173 11.3084 7.61673 10.0001 7.61673Z" fill="#768394"/>
</svg>
