<svg width="42" height="48" viewBox="0 0 42 48" fill="none" xmlns="http://www.w3.org/2000/svg">
<g clip-path="url(#clip0_2955_13625)">
<path d="M35.7083 5.63216C35.0013 6.11395 33.9888 6.42326 32.8564 6.42326C30.7235 6.42326 28.998 5.3407 28.998 4.00833C28.998 3.78825 29.052 3.57411 29.1418 3.36593C20.4784 0.945051 10.5449 0.177745 0.833008 1.34357L9.72408 26.2067L41.1663 8.3088C39.4648 7.32142 37.6315 6.43515 35.7083 5.63216Z" fill="url(#paint0_linear_2955_13625)"/>
<g style="mix-blend-mode:overlay">
<path d="M6.09303 14.1202C5.85937 14.1202 5.63769 14.138 5.41602 14.1618L6.96776 18.498C8.50752 18.2541 9.65185 17.3857 9.65185 16.3448C9.65185 15.1135 8.05817 14.1202 6.09303 14.1202Z" fill="white"/>
<path d="M22.7736 13.7217C25.6195 13.7217 27.9261 12.2763 27.9261 10.4978C27.9261 8.71931 25.6195 7.27392 22.7736 7.27392C19.9277 7.27392 17.6211 8.71931 17.6211 10.4978C17.6211 12.2763 19.9277 13.7217 22.7736 13.7217Z" fill="white"/>
<path d="M9.12501 4.78167C9.12501 4.06195 8.19037 3.47903 7.04005 3.47903C5.88972 3.47903 4.95508 4.06195 4.95508 4.78167C4.95508 5.50139 5.88972 6.0843 7.04005 6.0843C8.19037 6.0843 9.12501 5.50139 9.12501 4.78167Z" fill="white"/>
</g>
<path d="M41.1659 10.9201V8.30889L9.72363 26.2067V47.1917L13.0488 45.3002C13.4922 44.1581 14.1991 43.028 15.1637 42.0228C17.6261 39.4472 20.9693 38.4836 23.3478 39.4413L41.1599 29.2998V17.9448C40.7405 17.8199 40.3571 17.6117 40.0395 17.3084C38.5837 15.9344 38.9431 13.2161 40.8364 11.2354C40.9442 11.1223 41.0521 11.0212 41.1599 10.9201H41.1659Z" fill="url(#paint1_linear_2955_13625)"/>
<path d="M0.833008 1.34366V8.45165C1.38421 8.81448 1.7317 9.45093 1.69575 10.1647C1.65981 10.8012 1.32429 11.3484 0.833008 11.6755V22.3286L1.40817 23.9405C1.77364 24.0297 2.10316 24.1963 2.37277 24.4521C3.14564 25.1837 3.22952 26.4149 2.72026 27.6045L9.72408 47.1857V26.2008L0.833008 1.34366Z" fill="url(#paint2_linear_2955_13625)"/>
<path d="M27.8177 10.2837C27.8177 12.0622 25.5111 13.5075 22.6652 13.5075C19.8193 13.5075 17.5127 12.0622 17.5127 10.2837C17.5127 8.50518 19.8193 7.05979 22.6652 7.05979C25.5111 7.05979 27.8177 8.50518 27.8177 10.2837Z" fill="url(#paint3_linear_2955_13625)"/>
<path d="M20.5383 22.1382C22.2093 22.1382 23.5639 21.2914 23.5639 20.2467C23.5639 19.2021 22.2093 18.3552 20.5383 18.3552C18.8673 18.3552 17.5127 19.2021 17.5127 20.2467C17.5127 21.2914 18.8673 22.1382 20.5383 22.1382Z" fill="url(#paint4_linear_2955_13625)"/>
<path d="M9.5444 16.1307C9.5444 17.3619 7.95072 18.3552 5.98558 18.3552C4.02044 18.3552 2.42676 17.356 2.42676 16.1307C2.42676 14.9053 4.02044 13.9061 5.98558 13.9061C7.95072 13.9061 9.5444 14.9053 9.5444 16.1307Z" fill="url(#paint5_linear_2955_13625)"/>
<path d="M9.01759 4.56754C9.01759 5.28726 8.08295 5.87017 6.93262 5.87017C5.7823 5.87017 4.84766 5.28726 4.84766 4.56754C4.84766 3.84782 5.7823 3.2649 6.93262 3.2649C8.08295 3.2649 9.01759 3.84782 9.01759 4.56754Z" fill="url(#paint6_linear_2955_13625)"/>
<path d="M36.0257 28.8893C34.5938 30.3883 32.5388 30.757 31.4364 29.7221C30.334 28.6812 30.6036 26.6291 32.0355 25.1301C33.4674 23.6312 35.5225 23.2624 36.6249 24.2974C37.7273 25.3383 37.4576 27.3904 36.0197 28.8893H36.0257Z" fill="#E86B05"/>
<path d="M27.1587 23.7918C25.637 24.684 24.0672 24.8446 23.6538 24.1546C23.2404 23.4647 24.1451 22.1799 25.6669 21.2877C27.1887 20.3954 28.7584 20.2289 29.1658 20.9248C29.5792 21.6148 28.6745 22.8996 27.1528 23.7918H27.1587Z" fill="#E86B05"/>
<path d="M2.11546 19.42C2.05554 20.1932 2.33713 20.9962 2.74454 21.2163C3.15195 21.4304 3.5294 20.9784 3.58931 20.2051C3.64923 19.4319 3.36764 18.6289 2.96622 18.4088C2.55881 18.1946 2.18136 18.6467 2.12145 19.42H2.11546Z" fill="#E86B05"/>
<path d="M5.42876 29.3771C5.32092 30.7511 5.81819 32.1727 6.53715 32.5534C7.2561 32.94 7.92713 32.137 8.02898 30.763C8.13682 29.389 7.63954 27.9674 6.92059 27.5867C6.20164 27.2001 5.53061 28.0031 5.42876 29.3771Z" fill="#E86B05"/>
<path d="M22.0545 35.4858C20.9581 36.6278 19.3943 36.9133 18.5496 36.1163C17.7108 35.3252 17.9145 33.7549 19.0109 32.6129C20.1073 31.4708 21.677 31.1853 22.5158 31.9824C23.3546 32.7735 23.1509 34.3438 22.0545 35.4858Z" fill="#E86B05"/>
<path d="M10.3111 33.0947C11.048 33.8976 11.1678 34.9802 10.5807 35.5155C9.99353 36.0509 8.9151 35.8308 8.17817 35.0337C7.44124 34.2307 7.32141 33.1482 7.90856 32.6129C8.49571 32.0775 9.57414 32.2917 10.3111 33.0947Z" fill="url(#paint7_linear_2955_13625)"/>
</g>
<defs>
<linearGradient id="paint0_linear_2955_13625" x1="0.833008" y1="13.5075" x2="41.1663" y2="13.5075" gradientUnits="userSpaceOnUse">
<stop stop-color="#FFEA05"/>
<stop offset="0.59" stop-color="#FFCB05"/>
<stop offset="1" stop-color="#FFBB05"/>
</linearGradient>
<linearGradient id="paint1_linear_2955_13625" x1="16.0265" y1="21.359" x2="46.1428" y2="42.0829" gradientUnits="userSpaceOnUse">
<stop stop-color="#FFA705"/>
<stop offset="0.45" stop-color="#FF9605"/>
<stop offset="1" stop-color="#FF8605"/>
</linearGradient>
<linearGradient id="paint2_linear_2955_13625" x1="-3.25904" y1="13.0852" x2="10.727" y2="31.6693" gradientUnits="userSpaceOnUse">
<stop stop-color="#FFA705"/>
<stop offset="0.45" stop-color="#FF9605"/>
<stop offset="1" stop-color="#FF8605"/>
</linearGradient>
<linearGradient id="paint3_linear_2955_13625" x1="15.3618" y1="7.13712" x2="24.7166" y2="11.2253" gradientUnits="userSpaceOnUse">
<stop stop-color="#FFA705"/>
<stop offset="0.45" stop-color="#FF9605"/>
<stop offset="1" stop-color="#FF8605"/>
</linearGradient>
<linearGradient id="paint4_linear_2955_13625" x1="17.98" y1="18.5158" x2="48.0964" y2="39.2397" gradientUnits="userSpaceOnUse">
<stop stop-color="#FFA705"/>
<stop offset="0.45" stop-color="#FF9605"/>
<stop offset="1" stop-color="#FF8605"/>
</linearGradient>
<linearGradient id="paint5_linear_2955_13625" x1="1.13264" y1="9.77808" x2="15.1247" y2="28.3622" gradientUnits="userSpaceOnUse">
<stop stop-color="#FFA705"/>
<stop offset="0.45" stop-color="#FF9605"/>
<stop offset="1" stop-color="#FF8605"/>
</linearGradient>
<linearGradient id="paint6_linear_2955_13625" x1="3.97892" y1="3.29464" x2="7.76265" y2="4.95038" gradientUnits="userSpaceOnUse">
<stop stop-color="#FFA705"/>
<stop offset="0.45" stop-color="#FF9605"/>
<stop offset="1" stop-color="#FF8605"/>
</linearGradient>
<linearGradient id="paint7_linear_2955_13625" x1="-5.48796" y1="14.7685" x2="8.49811" y2="33.3467" gradientUnits="userSpaceOnUse">
<stop stop-color="#FFA705"/>
<stop offset="0.45" stop-color="#FF9605"/>
<stop offset="1" stop-color="#FF8605"/>
</linearGradient>
<clipPath id="clip0_2955_13625">
<rect width="40.3333" height="46.3833" fill="white" transform="translate(0.833008 0.808333)"/>
</clipPath>
</defs>
</svg>
