<svg width="20" height="20" viewBox="0 0 20 20" fill="none" xmlns="http://www.w3.org/2000/svg">
<path d="M7.29175 2.91667V1.66667C7.29175 1.32501 7.00841 1.04167 6.66675 1.04167C6.32508 1.04167 6.04175 1.32501 6.04175 1.66667V2.96667C6.25008 2.94167 6.44175 2.91667 6.66675 2.91667H7.29175Z" fill="#768394"/>
<path d="M13.9583 2.96667V1.66667C13.9583 1.32501 13.6749 1.04167 13.3333 1.04167C12.9916 1.04167 12.7083 1.32501 12.7083 1.66667V2.91667H13.3333C13.5583 2.91667 13.7499 2.94167 13.9583 2.96667Z" fill="#768394"/>
<path d="M13.9583 2.96667V4.16667C13.9583 4.50834 13.675 4.79167 13.3333 4.79167C12.9917 4.79167 12.7083 4.50834 12.7083 4.16667V2.91667H7.29167V4.16667C7.29167 4.50834 7.00833 4.79167 6.66667 4.79167C6.325 4.79167 6.04167 4.50834 6.04167 4.16667V2.96667C3.58333 3.19167 2.5 4.77501 2.5 7.08334V14.1667C2.5 16.6667 3.75 18.3333 6.66667 18.3333H13.3333C16.25 18.3333 17.5 16.6667 17.5 14.1667V7.08334C17.5 4.77501 16.4167 3.19167 13.9583 2.96667ZM10 13.9583H6.66667C6.325 13.9583 6.04167 13.675 6.04167 13.3333C6.04167 12.9917 6.325 12.7083 6.66667 12.7083H10C10.3417 12.7083 10.625 12.9917 10.625 13.3333C10.625 13.675 10.3417 13.9583 10 13.9583ZM13.3333 9.79167H6.66667C6.325 9.79167 6.04167 9.50834 6.04167 9.16667C6.04167 8.82501 6.325 8.54167 6.66667 8.54167H13.3333C13.675 8.54167 13.9583 8.82501 13.9583 9.16667C13.9583 9.50834 13.675 9.79167 13.3333 9.79167Z" fill="#768394"/>
</svg>
