<svg width="36" height="36" viewBox="0 0 36 36" fill="none" xmlns="http://www.w3.org/2000/svg">
<rect x="1" y="-1" width="34" height="34" rx="17" transform="matrix(-1 0 0 1 36 2)" fill="#FFF6ED"/>
<rect x="1" y="-1" width="34" height="34" rx="17" transform="matrix(-1 0 0 1 36 2)" stroke="#FECC8C" stroke-width="2"/>
<path fill-rule="evenodd" clip-rule="evenodd" d="M17.6095 11.7238C17.0888 11.2031 16.2446 11.2031 15.7239 11.7238L10.3905 17.0572C9.86983 17.5779 9.86983 18.4221 10.3905 18.9428L15.7239 24.2761C16.2446 24.7968 17.0888 24.7968 17.6095 24.2761C18.1302 23.7554 18.1302 22.9112 17.6095 22.3905L13.219 18L17.6095 13.6095C18.1302 13.0888 18.1302 12.2445 17.6095 11.7238Z" fill="#F38D03"/>
<path fill-rule="evenodd" clip-rule="evenodd" d="M25.6095 11.7238C25.0888 11.2031 24.2446 11.2031 23.7239 11.7238L18.3905 17.0572C17.8698 17.5779 17.8698 18.4221 18.3905 18.9428L23.7239 24.2761C24.2446 24.7968 25.0888 24.7968 25.6095 24.2761C26.1302 23.7554 26.1302 22.9112 25.6095 22.3905L21.219 18L25.6095 13.6095C26.1302 13.0888 26.1302 12.2445 25.6095 11.7238Z" fill="#F38D03"/>
</svg>
