<svg width="36" height="36" viewBox="0 0 36 36" fill="none" xmlns="http://www.w3.org/2000/svg">
<rect x="1" y="1" width="34" height="34" rx="17" fill="#FFF6ED"/>
<rect x="1" y="1" width="34" height="34" rx="17" stroke="#FECC8C" stroke-width="2"/>
<path fill-rule="evenodd" clip-rule="evenodd" d="M18.3905 11.7238C18.9112 11.2031 19.7554 11.2031 20.2761 11.7238L25.6095 17.0572C26.1302 17.5779 26.1302 18.4221 25.6095 18.9428L20.2761 24.2761C19.7554 24.7968 18.9112 24.7968 18.3905 24.2761C17.8698 23.7554 17.8698 22.9112 18.3905 22.3905L22.781 18L18.3905 13.6095C17.8698 13.0888 17.8698 12.2445 18.3905 11.7238Z" fill="#F38D03"/>
<path fill-rule="evenodd" clip-rule="evenodd" d="M10.3905 11.7238C10.9112 11.2031 11.7554 11.2031 12.2761 11.7238L17.6095 17.0572C18.1302 17.5779 18.1302 18.4221 17.6095 18.9428L12.2761 24.2761C11.7554 24.7968 10.9112 24.7968 10.3905 24.2761C9.86983 23.7554 9.86983 22.9112 10.3905 22.3905L14.781 18L10.3905 13.6095C9.86983 13.0888 9.86983 12.2445 10.3905 11.7238Z" fill="#F38D03"/>
</svg>
