<svg width="109" height="62" viewBox="0 0 109 62" fill="none" xmlns="http://www.w3.org/2000/svg">
<g opacity="0.35">
<path d="M1.36054 10.3309C13.7676 6.59915 26.3098 3.16067 39.1954 1.56299C39.674 1.50511 39.6778 0.744857 39.1954 0.806604C26.2403 2.41586 13.6326 5.85048 1.15987 9.60156C0.692917 9.74048 0.893587 10.4737 1.36054 10.3309Z" fill="#FC8C39"/>
<path d="M0.403505 10.3C4.3977 11.2417 8.307 12.5808 12.1738 13.9469C17.1869 15.7182 22.1497 17.6246 27.0971 19.5735C37.5553 23.6912 47.9287 28.025 58.3522 32.2392C62.6783 33.9874 67.0082 35.7394 71.4037 37.3023C71.5079 37.3409 71.8668 37.1866 71.7241 37.1364C62.8133 33.9681 54.0994 30.2131 45.3469 26.6357C34.9196 22.3714 24.4922 18.0839 13.8873 14.2749C9.54578 12.7158 5.15409 11.176 0.658209 10.1148C0.550153 10.0916 0.198975 10.2499 0.407368 10.3H0.403505Z" fill="#FC8C39"/>
<path d="M39.2494 0.741012C56.5769 4.78152 73.9507 8.69082 91.0428 13.6614C95.7663 15.0352 100.467 16.494 105.129 18.0646C105.592 18.219 105.788 17.4896 105.329 17.3353C88.5266 11.6816 71.284 7.45589 54.0376 3.41153C49.1751 2.27309 44.3126 1.14622 39.4501 0.0116371C38.9754 -0.100278 38.7747 0.629098 39.2494 0.741012Z" fill="#FC8C39"/>
<path d="M105.095 17.8023C93.4941 23.5023 83.1632 31.4289 71.6669 37.3218C71.528 37.3913 71.8174 37.6691 71.9409 37.6074C83.4372 31.7106 93.7681 23.7878 105.369 18.0879C105.508 18.0185 105.218 17.7406 105.095 17.8023Z" fill="#FC8C39"/>
<path d="M0.8937 11.234C0.573393 11.3613 0.241504 11.4655 0.00995669 11.7357C-0.0479302 11.8013 0.164322 11.9209 0.191336 11.9363C0.561812 12.11 0.963165 12.1756 1.36451 12.2335C1.44942 12.2451 1.46099 12.1949 1.4224 12.1332C1.37995 12.0598 1.25645 11.9981 1.17541 11.9865C0.835806 11.9363 0.492349 11.89 0.179759 11.7434C0.241505 11.809 0.299393 11.8746 0.361139 11.9441C0.581109 11.6894 0.905269 11.589 1.21014 11.4732C1.30662 11.4346 1.00947 11.1915 0.8937 11.2378V11.234Z" fill="#FC8C39"/>
<path d="M1.09051 12.4495C0.882114 12.7583 0.646712 13.0323 0.492347 13.3719C0.449897 13.4645 0.611981 13.5533 0.673727 13.5764C0.885979 13.6574 1.10981 13.7115 1.32592 13.7925C1.26417 13.7231 1.20629 13.6536 1.14454 13.588C0.743191 14.464 0.76634 15.3285 0.81265 16.2701C0.820368 16.4051 1.19085 16.5518 1.18313 16.4051C1.13682 15.4828 1.10595 14.6338 1.50344 13.7771C1.54589 13.6845 1.3838 13.5957 1.32206 13.5725C1.10981 13.4915 0.885975 13.4375 0.669864 13.3564C0.73161 13.4259 0.789497 13.4954 0.851243 13.561C1.00561 13.2214 1.24102 12.9474 1.44942 12.6386C1.52274 12.5267 1.17155 12.326 1.09051 12.4495Z" fill="#FC8C39"/>
<path d="M0.81258 16.8297C0.978523 17.0574 1.31427 17.1269 1.57283 17.1732C1.65773 17.1886 1.78123 17.1577 1.85455 17.1114C1.92015 17.069 1.90858 17.0342 1.83526 17.0227C1.60371 16.9802 1.33356 16.9146 1.18692 16.7139C1.12903 16.6367 0.754693 16.7525 0.81258 16.8297Z" fill="#FC8C39"/>
<path d="M1.37967 17.4896C1.31792 17.8253 1.15199 18.1572 0.955176 18.4312C0.870275 18.547 1.15199 18.8364 1.25619 18.6898C1.4723 18.3926 1.63052 18.0414 1.69612 17.6787C1.72314 17.5359 1.4144 17.2889 1.37967 17.4896Z" fill="#FC8C39"/>
<path d="M0.943906 18.848C1.11757 18.8866 1.28736 18.9368 1.44172 19.0255C1.61539 19.1259 1.59224 19.1606 1.50734 19.315C1.40314 19.5041 1.32981 19.7279 1.18702 19.8938C1.14071 19.944 1.32982 19.9363 1.3414 19.9324C1.42244 19.9209 1.52277 19.8977 1.5768 19.836C1.76589 19.6199 1.84307 19.3111 2.00902 19.0757C2.01674 19.0641 2.01288 19.0526 2.0013 19.0448C1.79677 18.8596 1.5382 18.767 1.27192 18.7091C1.18702 18.6898 1.07511 18.7091 0.994065 18.7515C0.967051 18.767 0.851283 18.8287 0.940043 18.848H0.943906Z" fill="#FC8C39"/>
<path d="M1.55019 21.476C1.77016 21.4876 1.97855 21.5069 2.20238 21.476C2.08275 21.4143 1.96698 21.3525 1.84735 21.2908C1.60808 21.6613 1.48845 22.0935 1.19515 22.4292C1.17586 22.4524 1.50388 22.6145 1.55019 22.6145H1.98241L1.62737 22.4292C1.46143 23.0042 1.50388 23.5754 1.46529 24.1658C1.46143 24.2507 1.82804 24.3356 1.82804 24.3511C1.86664 23.7606 1.82805 23.1933 1.99013 22.6145C2.00557 22.5604 1.6814 22.4292 1.63509 22.4292H1.20287C1.3225 22.491 1.43828 22.5527 1.55791 22.6145C1.85121 22.2787 1.96698 21.8465 2.21011 21.476C2.2294 21.449 1.90137 21.2831 1.85506 21.2908C1.63509 21.3217 1.42284 21.3024 1.20287 21.2908C1.2569 21.2908 1.43056 21.4722 1.54634 21.4799L1.55019 21.476Z" fill="#FC8C39"/>
<path d="M2.02042 25.1692C1.74256 25.5204 1.54961 25.8793 1.46857 26.3231C1.44927 26.4312 1.59205 26.6164 1.69239 26.6473C1.86991 26.7013 2.04744 26.7013 2.23268 26.7013C2.15935 26.5932 2.08216 26.4852 2.00884 26.3771C1.98955 26.655 1.8622 27.0178 1.97797 27.2879C2.00499 27.3535 2.06287 27.3959 2.09374 27.4577C2.24425 27.7356 2.21338 27.9015 2.17093 28.2218C2.15549 28.3337 2.41405 28.5768 2.42177 28.5267C2.49123 27.9748 2.52211 27.5503 2.03586 27.1991C2.09374 27.2879 2.15163 27.3805 2.20566 27.4693C2.16707 27.2107 2.24425 26.9406 2.25968 26.682C2.26354 26.5894 2.14391 26.3617 2.03586 26.3578C1.85062 26.3578 1.6731 26.3578 1.49558 26.3038C1.56891 26.4119 1.64608 26.5199 1.71941 26.628C1.79659 26.1919 1.97797 25.8562 2.25197 25.505C2.32143 25.4162 2.05901 25.1229 2.02042 25.1692Z" fill="#FC8C39"/>
<path d="M2.4643 30.0395C2.27906 30.2672 2.08611 30.41 2.06296 30.7226C2.05524 30.8422 2.18259 30.9464 2.29451 30.9464H2.78075L2.55692 30.7689C2.62639 31.0545 2.68041 31.3555 2.91582 31.5484C3.12035 31.7182 3.267 31.4172 3.08562 31.2629C2.95827 31.1548 2.93898 30.8962 2.90424 30.7419C2.88109 30.6415 2.78462 30.5644 2.68042 30.5644H2.19417C2.27135 30.6377 2.34853 30.7149 2.42572 30.7882C2.44115 30.5798 2.66112 30.4331 2.78461 30.2788C2.91196 30.1206 2.61095 29.8543 2.46816 30.0357L2.4643 30.0395Z" fill="#FC8C39"/>
<path d="M3.03166 31.7375C4.74125 32.9261 6.84449 33.4934 8.79335 34.1533C11.1744 34.9599 13.5362 35.8514 15.8555 36.8239C20.7142 38.8653 25.3953 41.2927 30.0764 43.7085C38.4932 48.0462 47.0836 52.1484 55.8516 55.7259C60.3166 57.5474 64.9012 59.2878 69.6441 60.2372C70.1188 60.3337 70.3233 59.6043 69.8448 59.5078C65.6808 58.6742 61.648 57.2193 57.7078 55.6641C53.3277 53.9352 49.0325 52.0018 44.7643 50.0182C40.4382 48.0076 36.1275 45.97 31.8825 43.7896C27.3365 41.4548 22.8058 39.0699 18.1324 36.9937C15.6008 35.8707 13.0229 34.8981 10.4296 33.9295C8.09484 33.0573 5.48607 32.5248 3.41372 31.0853C3.01237 30.8075 2.63417 31.4635 3.03166 31.7375Z" fill="#FC8C39"/>
<path d="M73.1905 61.175C86.435 54.1166 98.2131 44.6077 108.887 34.1148C109.235 33.7713 108.698 33.2387 108.351 33.5783C97.7191 44.0289 85.999 53.4876 72.8085 60.5189C72.3801 60.7466 72.7622 61.4027 73.1905 61.1711V61.175Z" fill="#FC8C39"/>
<path d="M108.456 33.5744C107.923 33.4124 107.36 33.4124 106.804 33.4124C106.715 33.4124 106.43 33.6362 106.53 33.6362C107.066 33.6362 107.614 33.6362 108.132 33.7983C108.232 33.8291 108.494 33.586 108.456 33.5744Z" fill="#FC8C39"/>
<path d="M107.495 32.247C107.557 32.2007 107.618 32.1544 107.676 32.1042C107.703 32.0811 107.746 32.0502 107.761 32.0155C107.804 31.9151 107.634 31.9036 107.572 31.9036C107.537 31.9036 107.506 31.9036 107.472 31.9036C107.452 31.9036 107.429 31.9036 107.41 31.9036C107.456 31.9074 107.383 31.9036 107.41 31.9036C107.398 31.9036 107.391 31.9036 107.379 31.8997C107.41 31.9074 107.344 31.8881 107.348 31.892C107.329 31.8843 107.306 31.8727 107.29 31.8611C107.248 31.8264 107.217 31.7762 107.198 31.726C107.155 31.6103 106.765 31.6797 106.792 31.7569C106.877 31.9923 107.109 32.0502 107.337 32.0618C107.371 32.0618 107.406 32.0618 107.445 32.0618C107.506 32.0734 107.464 32.0618 107.445 32.0618C107.418 32.0579 107.375 32.0232 107.367 32.0232C107.383 32.0155 107.36 32.0232 107.367 32.0232C107.367 32.0232 107.36 32.0348 107.356 32.0348C107.356 32.0348 107.337 32.0541 107.321 32.0656C107.263 32.1158 107.202 32.1621 107.14 32.2084C107.066 32.2624 107.175 32.2972 107.221 32.3049C107.306 32.3165 107.425 32.3126 107.495 32.2586V32.247Z" fill="#FC8C39"/>
<path d="M106.753 31.1278C106.672 31.1779 106.815 31.1548 106.823 31.1432C106.834 31.1278 106.823 31.0274 106.827 31.0043C106.842 30.8653 106.865 30.7303 106.877 30.5914C106.892 30.3405 106.877 30.0588 106.614 29.9546C106.452 29.889 106.182 30.1784 106.394 30.2633C106.638 30.3598 106.472 30.9232 106.456 31.1085C106.448 31.2088 106.433 31.3555 106.526 31.4249C106.641 31.5137 106.803 31.4326 106.908 31.367C107.12 31.232 106.969 30.9966 106.757 31.1316L106.753 31.1278Z" fill="#FC8C39"/>
<path d="M106.04 29.3603C106.36 28.7235 106.753 28.1408 107.178 27.5696C107.278 27.4384 106.892 27.3188 106.804 27.4384C106.379 28.0096 105.986 28.5923 105.665 29.2291C105.584 29.3834 105.974 29.4876 106.04 29.3603Z" fill="#FC8C39"/>
<path d="M106.843 27.4463C106.526 27.6007 105.913 27.9403 105.72 27.4694C105.67 27.3498 105.272 27.4 105.334 27.5466C105.619 28.2567 106.681 27.7936 107.14 27.5698C107.225 27.5273 107.19 27.4656 107.132 27.427C107.059 27.3768 106.92 27.4116 106.847 27.4463H106.843Z" fill="#FC8C39"/>
<path d="M106.996 27.6197C107.259 27.0331 107.733 26.1108 107.371 25.4702C107.05 24.899 106.282 24.9762 105.738 25.0766C105.534 25.1152 105.8 25.4084 105.958 25.3776C106.36 25.3004 107.039 25.1615 107.112 25.721C107.185 26.2768 106.869 26.9058 106.653 27.392C106.58 27.5541 106.923 27.7702 106.993 27.6159L106.996 27.6197Z" fill="#FC8C39"/>
<path d="M105.785 25.0728C105.662 25.1346 104.99 25.5321 104.84 25.4163C104.813 25.3931 104.952 25.1191 104.99 25.0497C105.311 24.4978 105.75 24.0116 106.163 23.533C106.337 23.3324 106.009 23.1703 105.859 23.3439C105.565 23.6874 105.268 24.0347 104.998 24.4013C104.797 24.6676 104.554 24.9725 104.465 25.3005C104.238 26.1843 105.646 25.5166 105.913 25.3854C106.14 25.2735 106.009 24.9609 105.777 25.0728H105.785Z" fill="#FC8C39"/>
<path d="M105.654 22.765C105.472 22.765 105.291 22.765 105.11 22.7496C105.036 22.7457 105.04 22.7496 104.967 22.738C104.917 22.7342 104.87 22.7264 104.82 22.7149C104.801 22.7149 104.782 22.7072 104.766 22.7033C104.758 22.7033 104.751 22.6994 104.743 22.6956C104.708 22.6917 104.785 22.7187 104.762 22.7033C104.754 22.6994 104.739 22.6917 104.731 22.6879C104.693 22.6763 104.782 22.7264 104.747 22.6956C104.789 22.7303 104.812 22.7728 104.809 22.8268C104.809 22.8075 104.789 22.8847 104.805 22.8499C104.805 22.8461 104.774 22.8962 104.797 22.8654C104.824 22.8345 104.762 22.8847 104.785 22.8731C104.793 22.8692 104.805 22.8577 104.812 22.8538C104.836 22.8384 104.855 22.8268 104.878 22.8152C104.89 22.8075 104.901 22.8036 104.913 22.7959C104.944 22.7805 104.87 22.8152 104.901 22.7998C104.905 22.7998 104.913 22.7959 104.917 22.7921C104.947 22.7805 104.978 22.765 105.009 22.7535C105.137 22.7033 105.272 22.6608 105.407 22.6222C105.465 22.6068 105.522 22.5914 105.584 22.5759C105.604 22.5721 105.627 22.5682 105.646 22.5644C105.669 22.5566 105.588 22.5682 105.619 22.5682C105.654 22.5682 105.53 22.5451 105.534 22.5489L105.449 22.4833C105.434 22.4524 105.422 22.4216 105.407 22.3907C105.407 22.3598 105.411 22.329 105.414 22.2981C105.434 22.2556 105.465 22.2402 105.488 22.2209C105.511 22.2016 105.511 22.2132 105.495 22.217C105.48 22.217 105.465 22.2286 105.453 22.2325C105.399 22.2518 105.341 22.2672 105.283 22.2826C105.044 22.3521 105.233 22.6994 105.449 22.6377C105.522 22.6184 105.596 22.5991 105.665 22.5682C105.881 22.4833 105.773 22.19 105.557 22.1939C105.422 22.1939 105.275 22.2556 105.148 22.2942C104.963 22.3483 104.774 22.4139 104.608 22.5103C104.538 22.5489 104.469 22.603 104.438 22.6801C104.388 22.8152 104.477 22.9426 104.592 23.0043C104.7 23.066 104.836 23.0853 104.955 23.0969C105.21 23.1239 105.468 23.1317 105.727 23.1317C105.827 23.1317 105.901 23.0352 105.881 22.9387C105.862 22.8345 105.762 22.7612 105.658 22.7612L105.654 22.765Z" fill="#FC8C39"/>
<path d="M105.168 20.5267C105.079 20.7698 104.917 20.9859 104.739 21.1712C104.624 21.2908 104.431 21.5108 104.249 21.5224C104.041 21.5339 103.933 21.7964 104.203 21.7809C104.504 21.7616 104.766 21.5571 104.975 21.3564C105.226 21.1172 105.446 20.8277 105.565 20.4958C105.623 20.3376 105.222 20.3762 105.168 20.5267Z" fill="#FC8C39"/>
<path d="M105.469 20.5151C105.338 20.187 105.16 19.8513 105.152 19.4924C105.145 19.0679 105.395 18.709 105.65 18.3887C105.716 18.3077 105.519 17.9912 105.422 18.0607C104.828 18.4968 104.168 18.8518 103.632 19.3612C103.543 19.4461 103.728 19.7703 103.84 19.7085C104.207 19.5156 105.743 18.4775 104.82 18.0607C104.678 17.9951 104.82 18.3578 104.925 18.408C104.62 18.2691 104.971 18.2884 104.786 18.3964C104.755 18.4157 104.72 18.4852 104.697 18.5122C104.577 18.655 104.431 18.7823 104.288 18.8981C104.083 19.0679 103.863 19.2338 103.628 19.3612C103.697 19.477 103.767 19.5927 103.836 19.7085C104.373 19.1953 105.033 18.8441 105.627 18.408C105.55 18.2999 105.477 18.188 105.399 18.08C105.106 18.4504 104.851 18.8557 104.886 19.3458C104.913 19.7548 105.106 20.1369 105.257 20.5112C105.326 20.681 105.561 20.7698 105.461 20.5112L105.469 20.5151Z" fill="#FC8C39"/>
<path d="M71.6234 38.9039C72.318 39.0583 73.0589 38.9077 73.5877 38.4176C73.6494 38.3598 73.4063 38.0433 73.3793 38.0665C72.8583 38.5527 72.1289 38.7071 71.442 38.5566C71.4227 38.5527 71.523 38.8846 71.6234 38.9039Z" fill="#FC8C39"/>
<path d="M71.7046 41.0999C71.94 41.0459 72.2372 41.0073 72.4533 40.8954C72.5343 40.8684 72.6154 40.8452 72.6964 40.8221C72.8662 40.7989 72.816 40.7565 72.5497 40.6947C72.214 40.9957 71.9246 41.6788 71.6737 42.057C71.6737 42.0724 71.6737 42.0802 71.6892 42.0917C72.6732 43.2032 71.967 44.9822 71.8358 46.2866C71.8242 46.3869 72.2024 46.4911 72.2063 46.4564C72.3066 45.4569 72.6501 44.3918 72.5613 43.3807C72.5266 42.9909 72.2565 42.7092 72.1832 42.3696C72.0597 41.7714 72.7504 41.5244 72.843 41.0266C72.9897 40.2432 71.7548 40.8182 71.3612 40.9108C71.3457 40.9108 71.5966 41.1231 71.7046 41.0999Z" fill="#FC8C39"/>
<path d="M72.3569 49.0727C73.1094 48.5556 73.9777 48.2391 74.7689 47.7915C74.6647 47.722 74.5566 47.6487 74.4524 47.5792C73.5725 48.6945 73.0516 50.0414 72.1755 51.1566C72.1061 51.2454 72.2334 51.3419 72.3068 51.365C73.2484 51.6429 72.9975 52.1214 72.9666 52.8431C72.9589 52.9936 73.3487 53.1016 73.3564 52.9203C73.4027 51.8899 73.5108 51.4731 72.3878 51.1451C72.4302 51.2145 72.4765 51.284 72.519 51.3535C73.3989 50.2382 73.9198 48.8913 74.7959 47.776C74.9078 47.6333 74.5798 47.5059 74.4794 47.5638C73.6651 48.0269 72.7814 48.3511 72.0096 48.8836C71.8784 48.9724 72.2295 49.1653 72.3569 49.0766V49.0727Z" fill="#FC8C39"/>
<path d="M71.2226 55.5792C71.6818 55.6448 72.168 55.7992 72.3996 56.2391C72.5771 56.5749 72.5539 56.9685 72.4845 57.3274C72.469 57.4123 72.8434 57.3197 72.8627 57.2155C72.936 56.8219 72.9591 56.3819 72.743 56.0269C72.4845 55.6024 71.9867 55.4519 71.5236 55.3863C71.4271 55.3708 71.1029 55.5599 71.2226 55.5792Z" fill="#FC8C39"/>
<path d="M72.6736 59.5078C72.6196 59.5618 72.5655 59.6159 72.5115 59.6699C72.4498 59.7316 72.4768 59.805 72.5578 59.8281C72.6504 59.8551 72.7701 59.8127 72.8357 59.7471C72.8897 59.6931 72.9437 59.639 72.9978 59.585C73.0595 59.5232 73.0325 59.4499 72.9515 59.4268C72.8588 59.3998 72.7392 59.4422 72.6736 59.5078Z" fill="#FC8C39"/>
<path d="M72.1297 40.2045C82.2252 32.5132 92.8493 25.0226 104.658 20.1987C104.847 20.1216 104.643 19.7704 104.446 19.8514C92.6371 24.6753 82.0091 32.1659 71.9174 39.8571C71.7476 39.9845 71.9637 40.3318 72.1297 40.2045Z" fill="#FC8C39"/>
<path d="M72.5961 42.0028C81.2752 37.0438 89.1247 30.7226 98.0007 26.0955C100.023 25.0419 102.111 24.0694 104.314 23.4636C104.488 23.4173 104.326 23.0468 104.141 23.0969C99.9264 24.2585 96.0364 26.6049 92.3432 28.8741C87.9014 31.6025 83.6062 34.5547 79.2453 37.4027C77.007 38.8653 74.7495 40.3087 72.4263 41.6362C72.2642 41.7288 72.4378 42.0954 72.5999 42.0028H72.5961Z" fill="#FC8C39"/>
<path d="M71.9478 46.8808C77.2117 43.3612 82.2478 39.5214 87.4422 35.9054C92.5479 32.3511 97.8426 28.8278 103.662 26.547C103.874 26.4621 103.701 26.0955 103.485 26.1804C97.8001 28.4071 92.6212 31.8263 87.6236 35.2879C82.3019 38.9773 77.1499 42.9136 71.7665 46.5141C71.5774 46.6415 71.7549 47.0081 71.944 46.8808H71.9478Z" fill="#FC8C39"/>
<path d="M72.8478 49.995C83.9158 42.7167 94.5477 34.7784 105.866 27.8745C105.982 27.805 105.608 27.7355 105.519 27.7896C94.2042 34.6935 83.5723 42.6318 72.5005 49.9101C72.3847 49.9873 72.7629 50.0529 72.8478 49.995Z" fill="#FC8C39"/>
<path d="M70.8679 55.6257C82.0247 46.1554 94.2542 37.9509 106.978 30.7421C107.043 30.7073 106.793 30.3986 106.684 30.4603C93.961 37.6692 81.7314 45.8737 70.5746 55.344C70.5052 55.4058 70.783 55.699 70.8679 55.6257Z" fill="#FC8C39"/>
<path d="M73.499 57.5706C84.4937 48.5402 96.7039 41.1693 108.115 32.7062C108.266 32.5943 107.884 32.6677 107.818 32.7178C96.3875 41.1963 84.1618 48.5788 73.1478 57.6246C73.0745 57.6864 73.4257 57.6323 73.499 57.5706Z" fill="#FC8C39"/>
<path d="M1.91588 13.6692C20.6134 20.0947 37.9563 29.7695 56.3643 36.905C61.5085 38.9002 66.7377 40.687 72.0594 42.1496C72.2909 42.2113 72.1366 41.864 71.9783 41.8177C52.8757 36.5693 35.3591 27.126 17.2405 19.346C12.2005 17.181 7.10641 15.1511 1.91974 13.3682C1.6689 13.2833 1.73836 13.6113 1.91202 13.6692H1.91588Z" fill="#FC8C39"/>
<path d="M3.43333 17.9256C22.0806 24.243 39.632 33.2965 58.0709 40.1465C63.2112 42.0568 68.4133 43.7818 73.6965 45.2483C73.9512 45.3177 73.9975 44.9588 73.7582 44.8894C54.7211 39.6062 37.0116 30.7804 18.7888 23.3284C13.7449 21.2638 8.65473 19.3149 3.49121 17.5667C3.24037 17.4818 3.19792 17.8446 3.42947 17.9256H3.43333Z" fill="#FC8C39"/>
<path d="M2.65379 20.137C20.6528 28.1485 37.8683 37.8426 56.0989 45.3448C61.3164 47.4905 66.6111 49.4509 71.9907 51.1566C72.0872 51.1875 72.3496 50.9444 72.3149 50.9328C53.4476 44.9511 35.9195 35.7278 18.1984 27.0679C13.1622 24.6058 8.09902 22.1977 2.97796 19.917C2.8892 19.8784 2.61134 20.1215 2.65379 20.1408V20.137Z" fill="#FC8C39"/>
<path d="M1.6962 24.6328C19.7878 32.2199 37.4356 40.7833 55.3381 48.791C60.3935 51.0524 65.4683 53.2637 70.5739 55.4055C70.6588 55.4403 71.0447 55.3785 70.8595 55.3013C52.7679 47.7143 35.1201 39.1509 17.2176 31.1432C12.1622 28.8817 7.0874 26.6705 1.98177 24.5287C1.89687 24.4939 1.51096 24.5557 1.6962 24.6328Z" fill="#FC8C39"/>
<path d="M2.5034 29.1674C21.7836 36.986 40.7242 45.5842 59.9156 53.6111C64.153 55.3825 68.4096 57.1114 72.6971 58.7515C72.9325 58.8403 73.0019 58.601 72.7743 58.5122C55.2538 51.8205 38.2158 43.8977 20.9578 36.5654C14.8526 33.972 8.72818 31.4212 2.58059 28.9282C2.34904 28.8355 2.27571 29.0748 2.5034 29.1674Z" fill="#FC8C39"/>
<path d="M2.14835 12.2567C19.8733 20.0792 39.0185 23.9267 56.8901 31.3594C62.0613 33.5089 67.0975 35.9711 71.8944 38.8654C71.9677 38.9079 72.3266 39.0082 72.1105 38.877C55.3966 28.7892 36.236 24.3281 17.909 18.1728C12.5873 16.386 7.31958 14.441 2.18308 12.1757C1.97083 12.0831 1.93224 12.1564 2.14835 12.2529V12.2567Z" fill="#FC8C39"/>
<path d="M0.411416 21.7346C16.9362 33.4895 36.9535 38.8692 56.0948 44.7119C61.5747 46.3867 67.047 48.0963 72.4498 50.0182C72.6466 50.0876 72.8704 49.8908 72.6157 49.8021C53.5979 43.0447 33.6308 38.7997 15.3347 30.0858C10.2213 27.6507 5.2855 24.8528 0.666119 21.5687C0.515613 21.4606 0.195304 21.5803 0.411416 21.7346Z" fill="#FC8C39"/>
<path d="M0.669745 19.4076C17.2408 31.2243 37.3199 35.0525 56.11 41.8793C61.4086 43.805 66.6068 46.0047 71.5812 48.656C71.6777 48.7061 71.9517 48.5826 71.9671 48.5903C54.2345 39.1393 34.0782 36.0443 15.8593 27.7819C10.6726 25.4317 5.69048 22.6493 1.05181 19.342C0.970765 19.2841 0.669753 19.4115 0.665894 19.4076H0.669745Z" fill="#FC8C39"/>
<path d="M0.828098 15.2899C19.9308 21.6574 39.0914 28.0366 57.4415 36.3877C62.4082 38.6492 67.3054 41.0534 72.1178 43.6274C72.3532 43.7548 72.3802 43.4422 72.1872 43.338C54.7401 34.0182 36.2047 27.0216 17.5304 20.6039C11.9964 18.7052 6.44698 16.849 0.897559 15.0004C0.646716 14.9155 0.611986 15.2165 0.828098 15.2899Z" fill="#FC8C39"/>
<path d="M2.69247 28.9513C20.1898 38.3559 37.5095 48.4321 56.3112 55.0698C61.3705 56.8566 66.5263 58.3694 71.7709 59.5117C71.9484 59.5503 72.1761 59.257 71.9329 59.203C52.6257 54.9965 34.8004 45.8735 17.5231 36.5653C12.6567 33.9411 7.80966 31.2822 2.93558 28.6657C2.78122 28.5846 2.49179 28.8471 2.69247 28.9551V28.9513Z" fill="#FC8C39"/>
<path d="M54.7705 6.17472C52.0769 5.35272 49.0552 5.30255 46.265 5.37202C42.8381 5.45692 39.2144 5.84669 36.046 7.2437C33.6302 8.30882 31.5038 10.2152 31.6659 13.0633C31.8473 16.2702 34.5796 18.2191 37.2578 19.4694C40.9664 21.1983 45.0725 22.0589 49.0899 22.7265C52.1502 23.2359 55.2529 23.6759 58.3479 23.8804C63.7121 24.2354 75.4207 24.2895 74.5794 16.1428C74.2205 12.6696 71.1757 10.4661 68.2312 9.13081C64.7695 7.564 60.9837 6.78446 57.252 6.17858C56.5342 6.0628 55.8164 5.95475 55.0986 5.84669C54.8786 5.81196 54.9519 6.19787 55.1217 6.22489C58.3171 6.70728 61.5124 7.23598 64.6152 8.16603C67.9031 9.15396 71.9282 10.686 73.6301 13.9123C74.4251 15.4212 74.5756 17.3662 73.9234 18.9561C73.3329 20.384 72.098 21.3758 70.7357 22.028C67.5635 23.5485 63.7469 23.6759 60.2929 23.5871C57.4411 23.5138 54.6084 23.1549 51.7874 22.7612C48.0672 22.2403 44.3393 21.5726 40.7542 20.4342C37.7904 19.4926 33.7884 18.0647 32.3992 14.9928C31.1256 12.1757 32.7079 9.51672 35.1855 8.12358C37.9524 6.57221 41.2867 6.07438 44.4088 5.85055C47.3842 5.63444 50.4676 5.66531 53.4083 6.21717C53.8791 6.30593 54.3422 6.41012 54.8014 6.54905C55.0098 6.61466 54.9403 6.22103 54.7782 6.17086L54.7705 6.17472Z" fill="#FC8C39"/>
<path d="M63.7664 14.7573C64.5266 11.1142 61.5319 8.2855 58.3096 7.25511C56.5344 6.68782 54.6781 6.65308 52.9068 7.23581C51.8031 7.59857 49.8658 8.12727 49.395 9.36219C48.6386 11.3419 52.8875 12.4919 54.0722 12.9319C56.4842 13.8311 58.8074 14.7843 60.7871 16.4823C61.3621 16.9724 62.5585 18.0182 61.8831 18.7669C61.1499 19.5773 59.475 19.5927 58.4909 19.6313C54.9367 19.778 51.0583 19.1528 47.7896 17.7288C46.6781 17.2464 44.9377 16.4398 44.6753 15.0891C44.3549 13.4297 46.6704 12.1909 47.8205 11.5658C48.2488 11.3342 47.8668 10.6782 47.4384 10.9136C46.1031 11.6352 44.3318 12.681 43.9536 14.2903C43.6757 15.4712 44.4206 16.4823 45.3004 17.1731C47.9941 19.284 51.9806 19.9594 55.2917 20.2797C56.9318 20.4379 58.626 20.4958 60.2546 20.2102C61.1653 20.0481 62.4658 19.7162 62.7861 18.709C63.1643 17.5242 61.8985 16.4128 61.1036 15.7645C59.0968 14.1321 56.8585 13.1596 54.4543 12.272C53.1653 11.7934 51.2782 11.3419 50.3327 10.2691C49.2097 8.99172 52.9377 7.99606 53.6362 7.8031C57.6188 6.70711 64.0519 9.69408 63.037 14.5604C62.9367 15.0351 63.666 15.2396 63.7664 14.7611V14.7573Z" fill="#FC8C39"/>
<path d="M42.2867 18.4004C48.6234 15.5292 53.9837 10.96 60.1776 7.82639C60.6137 7.60642 60.2317 6.95423 59.7956 7.1742C53.6017 10.304 48.2414 14.8732 41.9047 17.7482C41.4609 17.9489 41.8468 18.6011 42.2867 18.4004Z" fill="#FC8C39"/>
<path d="M46.4269 19.481C51.355 15.3055 57.4023 12.5346 63.2643 9.94512C63.7081 9.74831 63.326 9.09612 62.8822 9.29293C56.9507 11.9133 50.8726 14.7227 45.8905 18.9485C45.52 19.2649 46.0564 19.7975 46.4269 19.4849V19.481Z" fill="#FC8C39"/>
<path d="M93.683 16.606C91.7148 15.6103 89.9666 14.6841 87.6974 15.1048C87.3926 15.1627 87.3115 15.6682 87.6087 15.7956C88.6159 16.2394 90.1441 16.9186 90.476 18.0995C90.6767 18.8057 90.2098 19.3768 89.573 19.6354C87.1225 20.6233 85.6714 17.7328 85.4128 15.7917C85.3511 15.317 84.5909 15.3093 84.6565 15.7917C84.8687 17.3739 85.4051 19.0565 86.8099 19.9788C87.7322 20.5847 88.9478 20.7468 89.9628 20.2876C90.8156 19.9017 91.4292 19.0681 91.2517 18.1033C90.9739 16.5867 89.2488 15.6952 87.9907 15.1395L87.902 15.8303C89.9319 15.4559 91.5489 16.3706 93.3048 17.2543C93.737 17.4743 94.1229 16.8221 93.6868 16.6021L93.683 16.606Z" fill="#FC8C39"/>
<path d="M90.8614 14.329C88.7621 15.7453 86.7322 17.3237 84.93 19.1066C84.5826 19.4501 85.1191 19.9826 85.4664 19.643C87.2262 17.9064 89.1982 16.3666 91.2435 14.9851C91.6448 14.7149 91.2667 14.0589 90.8614 14.3329V14.329Z" fill="#FC8C39"/>
<path d="M92.899 15.205C91.147 16.6483 89.4489 18.1534 87.693 19.5967C87.3148 19.9054 87.8551 20.438 88.2294 20.1331C89.9815 18.6898 91.6795 17.1847 93.4354 15.7414C93.8136 15.4327 93.2733 14.9001 92.899 15.205Z" fill="#FC8C39"/>
<path d="M13.7523 10.165C13.7214 10.3232 13.7098 10.4467 13.7947 10.5895C13.8874 10.7477 14.0533 10.7902 14.2231 10.7632C14.7325 10.6821 15.2342 9.91415 15.4194 9.48193C15.5236 9.24266 15.4426 9.01883 15.1917 8.92621C14.5164 8.67537 13.841 8.33576 13.131 8.2007C12.4518 8.07334 11.7648 8.17368 11.0895 8.27788C10.7499 8.33191 10.746 8.8143 11.0007 8.96866C12.2897 9.7675 12.9998 11.2263 14.254 12.0598C14.2848 11.8283 14.3157 11.6006 14.3427 11.369C13.4474 11.616 12.309 11.7935 11.4908 11.2185C10.6148 10.6011 10.7769 9.46649 11.0663 8.58275C11.2168 8.11965 10.4875 7.91898 10.337 8.38207C9.96263 9.52438 9.90088 10.8751 10.9004 11.7202C11.9038 12.5615 13.3664 12.4226 14.5434 12.1023C14.8714 12.0135 14.8985 11.5852 14.6322 11.4115C13.3818 10.5818 12.6756 9.12303 11.3789 8.32033C11.348 8.55188 11.3172 8.77956 11.2902 9.01111C11.9578 8.90692 12.61 8.82973 13.2699 9.01497C13.8565 9.17706 14.4199 9.44719 14.9911 9.65945C14.9139 9.47421 14.8406 9.28897 14.7634 9.10373C14.6669 9.3237 14.3119 9.99133 14.0186 10.0376C14.1614 10.0955 14.3041 10.1534 14.4469 10.2113C14.4585 10.2653 14.4701 10.3194 14.4817 10.3734C14.5743 9.89871 13.8449 9.69418 13.7523 10.1727V10.165Z" fill="#FC8C39"/>
<path d="M14.6706 7.78778C12.8915 8.30105 11.2167 9.13848 9.78493 10.3232C9.4106 10.6358 9.94702 11.1684 10.3214 10.8596C11.645 9.7598 13.2234 8.99183 14.8713 8.51716C15.3382 8.38209 15.1414 7.65271 14.6706 7.78778Z" fill="#FC8C39"/>
<path d="M15.7165 8.63681C13.9066 9.63632 12.2394 10.8249 10.7614 12.276C10.414 12.6194 10.9466 13.152 11.2978 12.8124C12.7295 11.4077 14.3465 10.2654 16.1024 9.29286C16.5269 9.05745 16.1487 8.4014 15.7203 8.64067L15.7165 8.63681Z" fill="#FC8C39"/>
<path d="M62.8869 28.9705C65.87 30.792 69.4821 30.0935 72.5424 28.8393C75.8767 27.4732 78.8984 25.4279 81.7233 23.2204C81.5265 23.0661 81.3258 22.9156 81.129 22.7612C78.7672 26.2267 75.1551 28.7506 71.3808 30.4795C70.4508 30.9078 69.4937 31.2822 68.5212 31.6025C67.8768 31.8147 67.8999 31.7375 67.4136 31.2706C67.0972 30.9657 66.7576 30.684 66.4064 30.4216C64.8242 29.2523 62.9486 28.6001 61.0615 28.1177C60.5907 27.998 60.3862 28.7274 60.8608 28.847C63.3963 29.4954 65.7658 30.4833 67.5256 32.4901C67.6105 32.5865 67.7726 32.6251 67.8922 32.5865C73.2525 30.9966 78.5897 27.8282 81.7812 23.1433C82.0436 22.7573 81.4956 22.4409 81.1869 22.684C78.5858 24.7178 75.8034 26.5972 72.7701 27.9247C69.814 29.2214 66.2057 30.1128 63.2651 28.3145C62.8483 28.0598 62.4662 28.7158 62.883 28.9667L62.8869 28.9705Z" fill="#FC8C39"/>
<path d="M29.2738 4.73905C34.3138 1.86786 41.0441 1.05744 46.1343 4.2528C46.2308 4.02125 46.3273 3.79356 46.4276 3.56201C40.527 2.74774 34.5029 2.16501 28.8223 4.37629C28.3746 4.54995 28.5676 5.28318 29.023 5.10566C34.5762 2.94455 40.4576 3.49641 46.227 4.29139C46.6322 4.34542 46.91 3.84373 46.5202 3.6006C41.2062 0.266317 34.1672 1.08831 28.8956 4.08685C28.4711 4.32612 28.8532 4.98217 29.2777 4.73905H29.2738Z" fill="#FC8C39"/>
</g>
</svg>
