<svg width="102" height="113" viewBox="0 0 102 113" fill="none" xmlns="http://www.w3.org/2000/svg">
<g opacity="0.35">
<path d="M51.5852 20.824C52.1155 20.824 52.6385 20.7007 53.1516 20.454L53.0382 20.2172L53.1911 20.4614C54.3802 19.7164 55.1425 18.2535 55.3965 16.2306C55.9565 11.7778 53.9929 5.29718 51.1954 2.35906C48.3707 -0.52231 46.2294 -0.149799 45.2057 0.328785C43.1828 1.27362 42.0899 4.03165 42.4156 7.35953C42.719 10.2508 45.7484 18.1227 49.5993 20.269C50.2678 20.6415 50.9314 20.829 51.5852 20.829V20.824ZM52.9543 20.0395C51.9527 20.5231 50.8969 20.4639 49.8213 19.8619C48.2203 18.9689 46.5353 16.8424 45.0798 13.8772C43.7526 11.1709 43.0027 8.57325 42.8695 7.30525C42.5661 4.22406 43.5824 1.58444 45.3981 0.73582C46.9769 -0.00179201 48.9184 0.686488 50.8648 2.6699C53.5809 5.52167 55.4878 11.8296 54.9402 16.1665C54.7033 18.0413 54.02 19.3858 52.9617 20.0568L52.9518 20.0371L52.9543 20.0395Z" fill="#167A7A"/>
<path d="M49.2613 21.5491C50.3147 21.5491 51.3755 21.295 52.4141 20.7843L52.2118 20.3724C48.874 22.0104 46.1555 20.582 44.4607 19.0945C42.6598 17.5132 41.1501 15.0586 40.3138 12.3598C39.4578 9.5968 39.3813 6.91279 40.0967 4.80603C40.9897 2.17628 43.0422 0.681318 46.0272 0.483964L45.9976 0.0275879C41.9716 0.294016 40.331 2.69435 39.6625 4.66049C38.1281 9.18237 40.1855 15.9516 44.1572 19.4399C45.7484 20.8386 47.4925 21.5491 49.2589 21.5491H49.2613Z" fill="#167A7A"/>
<path d="M47.8224 20.9498C48.6512 20.9498 49.5023 20.8881 50.2868 20.8314L50.5977 20.8092L50.5656 20.3528L50.2547 20.375C48.9769 20.4687 47.5288 20.5748 46.3052 20.3997L46.2411 20.8536C46.7443 20.9251 47.2796 20.9522 47.8224 20.9522V20.9498Z" fill="#167A7A"/>
<path d="M45.4823 19.7458C46.474 19.7458 47.4336 19.736 48.4697 19.662L48.4377 19.2056C47.2585 19.2894 46.173 19.287 45.0234 19.287H44.5424V19.7434H45.021C45.1764 19.7434 45.3293 19.7434 45.4798 19.7434L45.4823 19.7458Z" fill="#167A7A"/>
<path d="M43.1163 18.1007C44.4016 18.1007 45.9977 17.9922 46.834 17.9281L46.7994 17.4717C45.3662 17.5827 44.0587 17.6419 43.1163 17.6419V18.1007Z" fill="#167A7A"/>
<path d="M45.9923 16.4971L46.0293 16.0407C45.0869 15.9617 44.2383 15.984 43.3403 16.0062C42.9308 16.016 42.5065 16.0259 42.0748 16.0259V16.4847C42.5114 16.4847 42.9382 16.4749 43.3502 16.465C44.2358 16.4428 45.0746 16.4231 45.9898 16.4995L45.9923 16.4971Z" fill="#167A7A"/>
<path d="M42.6991 15.012C43.829 15.012 45.0994 14.9824 45.1858 14.9799L45.1759 14.5235C45.1414 14.5235 41.7691 14.6025 41.1203 14.5087L41.0561 14.9626C41.3226 14.9996 41.9837 15.012 42.7016 15.012H42.6991Z" fill="#167A7A"/>
<path d="M44.2656 13.2532V12.7944C43.2986 12.7944 41.8678 12.7722 40.5332 12.6587L40.4962 13.1151C41.8456 13.2285 43.2912 13.2507 44.2656 13.2507V13.2532Z" fill="#167A7A"/>
<path d="M43.4386 11.3732V10.9143C42.8712 10.9143 42.3482 10.9143 41.8129 10.9094C41.2554 10.9094 40.688 10.9045 40.049 10.9045V11.3633C40.688 11.3633 41.2554 11.3633 41.8129 11.3683C42.3482 11.3683 42.8737 11.3732 43.4386 11.3732Z" fill="#167A7A"/>
<path d="M42.8615 9.7893V9.33045C42.6962 9.33045 40.7226 9.14542 39.8025 9.04181L39.7531 9.49573C40.5746 9.58701 42.6493 9.78683 42.8615 9.78683V9.7893Z" fill="#167A7A"/>
<path d="M39.8253 7.99593C40.2595 7.90958 40.6789 7.84051 41.0835 7.77637C41.5793 7.69496 42.0505 7.62095 42.5266 7.51487L42.4279 7.06836C41.9617 7.17197 41.5004 7.24599 41.0094 7.32493C40.5999 7.39154 40.1781 7.4606 39.734 7.54941L39.8229 7.9984L39.8253 7.99593Z" fill="#167A7A"/>
<path d="M40.0301 5.68203C40.7677 5.49701 41.6163 5.40082 42.4797 5.40082V4.94196C41.5793 4.94196 40.6937 5.0431 39.9191 5.23799L40.0301 5.68203Z" fill="#167A7A"/>
<path d="M40.4895 4.14258C40.746 4.10558 41.0372 4.09819 41.348 4.08832C41.8241 4.07352 42.3175 4.06118 42.6974 3.9329L42.5518 3.49872C42.2361 3.6048 41.7772 3.61712 41.3332 3.62946C41.0248 3.63933 40.7041 3.64674 40.4229 3.68868L40.487 4.14258H40.4895Z" fill="#167A7A"/>
<path d="M41.7073 2.50691C42.2845 2.50691 42.884 2.50692 43.4785 2.40824L43.402 1.95679C42.842 2.05053 42.2648 2.05053 41.7048 2.05053V2.50938L41.7073 2.50691Z" fill="#167A7A"/>
<path d="M42.8408 1.43661C43.3835 1.25652 44.0299 1.25651 44.5997 1.25651V0.797668C43.9953 0.797668 43.3095 0.797673 42.6953 1.00243L42.8408 1.43661Z" fill="#167A7A"/>
<path d="M50.4651 16.3243C51.1805 16.3243 51.8195 16.0899 52.2512 15.6311C52.8482 14.9921 53.5266 13.4059 51.3458 9.96453L50.9585 10.2088C52.4313 12.5326 52.7791 14.3951 51.9157 15.3178C51.257 16.0208 49.9619 16.0554 48.7654 15.4041C47.3469 14.632 46.0715 12.8434 46.7475 10.1421C46.9596 9.29598 47.5936 8.61757 48.2054 7.96137C49.2144 6.88085 50.2579 5.76335 49.4339 3.92055C48.8123 2.44533 47.8008 1.79899 46.7302 2.19123C45.435 2.66735 44.4902 4.58661 45.1514 6.68597L45.588 6.54782C45.0157 4.72476 45.8125 3.01518 46.8881 2.62048C47.7145 2.31704 48.4891 2.8573 49.0146 4.1031C49.7176 5.67454 48.8641 6.58977 47.8724 7.65055C47.2186 8.34869 46.5452 9.07149 46.3059 10.0311C45.5683 12.9865 46.9818 14.9527 48.5508 15.8062C49.1872 16.154 49.8558 16.3243 50.4676 16.3243H50.4651Z" fill="#167A7A"/>
<path d="M51.3143 16.4848L51.7657 16.4058C51.2798 13.6157 50.3695 10.2656 49.4888 7.02654C48.9707 5.12207 48.4354 3.151 48.0037 1.35754L47.5596 1.46362C47.9913 3.26448 48.5291 5.23802 49.0472 7.14742C49.9254 10.3766 50.8332 13.7169 51.3143 16.4848Z" fill="#167A7A"/>
<path d="M49.7717 17.743L50.2207 17.6566C50.0209 16.6156 49.8309 15.503 49.6286 14.3238C48.8639 9.84633 47.998 4.77185 46.1503 1.30334L45.7457 1.51797C47.5614 4.91986 48.4198 9.95734 49.1772 14.4003C49.3795 15.5819 49.5694 16.697 49.7693 17.743H49.7717Z" fill="#167A7A"/>
<path d="M96.2614 79.3449L96.5722 79.0192L96.7104 79.446C97.9685 83.3092 97.4036 87.5499 94.986 92.4146L94.5049 92.1754C94.5049 92.1754 94.5123 92.1606 94.5148 92.1532L94.3544 92.2272C93.4441 90.2511 93.1111 87.8854 93.4145 85.564C93.7328 83.139 94.7418 80.9311 96.2589 79.3424L96.2614 79.3449ZM94.7245 91.7313C96.8041 87.3747 97.332 83.5485 96.3379 80.0627C93.7871 83.0452 93.1037 87.9199 94.7245 91.7313Z" fill="#167A7A"/>
<path d="M83.4056 87.2167C83.7041 84.318 84.9079 81.4514 86.546 79.7369L86.8198 79.4483L86.9358 79.8282C88.4061 84.5992 88.0632 90.9072 86.0797 95.5253L85.8602 95.4315L85.7072 95.5672C83.8792 93.4999 83.0602 90.5347 83.4031 87.2167H83.4056ZM85.8108 94.9628C87.5599 90.6087 87.8757 84.8533 86.6101 80.3635C83.8891 83.5533 82.3004 90.6038 85.8108 94.9628Z" fill="#167A7A"/>
<path d="M-0.622559 70.0195C-0.148911 65.1646 0.712036 60.3318 2.01704 55.6299C3.12222 51.6433 4.52345 47.6148 6.69928 44.0723C9.34876 39.7601 13.0294 35.929 17.1369 32.9884C25.3345 27.1146 35.5426 25.2792 45.4276 26.5941C51.0448 27.3416 56.5781 28.9994 61.8031 31.1777C66.88 33.2943 71.6831 36.0301 76.0027 39.4444C76.9574 40.1992 77.8825 40.9887 78.7854 41.8027C79.5452 39.9254 80.9193 38.4724 83.2061 38.2824C86.8301 37.9839 87.876 42.3751 87.5874 45.1775C87.4271 46.7465 86.9238 48.4536 85.7989 49.6155C90.6143 56.254 93.7794 63.9064 95.7307 71.8425C96.5448 72.1287 97.2282 72.6097 97.7635 73.3054C98.2717 73.9665 98.6022 74.7362 99.0537 75.4319C101.412 78.3774 102.505 82.0433 101.777 85.8152C101.037 89.6587 98.6096 93.0704 95.5778 95.4757C93.1849 97.3752 90.3652 98.7172 87.3802 99.292C86.4798 99.593 85.5818 99.8964 84.6962 100.232C85.0711 102.738 84.0449 105.114 81.9825 106.634C80.1743 107.966 77.5791 108.639 75.4402 107.729C74.3597 107.27 73.5826 106.421 73.1312 105.366C67.6324 106.232 62.0572 106.298 56.5214 106.804C56.2278 113.132 46.2491 113.398 42.9434 109.3C41.9418 108.06 41.6606 106.52 41.9418 104.991C33.2706 102.151 24.9891 98.325 16.6311 94.7036C14.332 93.7069 12.0205 92.7325 9.69414 91.8025C9.40797 93.2999 8.81098 95.2389 7.16553 95.5596C5.71992 95.8433 4.34829 94.6814 3.43552 93.7094C2.22427 92.4192 1.24737 90.8576 0.608437 89.2072C-0.0527039 87.4952 -0.358604 85.6129 -0.595428 83.8022C-1.19242 79.2384 -1.06662 74.5833 -0.620102 70.0121L-0.622559 70.0195ZM99.8308 78.0838C99.3423 77.1711 98.7404 76.3299 98.0595 75.5479C93.7301 72.8022 88.5396 72.9576 84.0276 75.2049C79.7253 77.3487 76.0397 81.0368 73.9576 85.3761C72.3369 88.7533 71.6338 93.2579 74.6656 96.085C76.427 97.7255 78.9211 98.3867 81.2548 98.6408C85.0267 99.0478 88.7543 98.5322 92.1315 96.7462C98.6294 93.3048 103.677 85.2675 99.8332 78.0863L99.8308 78.0838ZM-0.134109 78.6365C-0.0872421 80.6865 0.0558319 82.7414 0.383934 84.7692C0.655296 86.4467 0.995743 88.1835 1.73582 89.7253C2.45863 91.2375 3.45034 92.7029 4.72821 93.8031C5.66318 94.6073 7.03725 95.3006 7.95741 94.0967C8.59142 93.2653 8.80603 92.1281 8.97131 91.124C9.00585 90.9168 9.29202 90.754 9.48691 90.8305C18.0348 94.2274 26.3163 98.2609 34.8913 101.589C37.4175 102.568 39.9658 103.486 42.5438 104.32C42.7633 104.391 42.8941 104.606 42.8373 104.835C41.3794 110.756 50.0926 112.715 53.9434 109.986C55.1202 109.152 55.7147 107.865 55.6925 106.434C55.69 106.192 55.8874 106.037 56.1119 106.014C61.8327 105.469 67.6077 105.442 73.2891 104.51C73.5234 104.47 73.7233 104.569 73.8047 104.803C74.4806 106.75 76.4023 107.527 78.3488 107.26C80.379 106.981 82.3254 105.731 83.3098 103.92C83.9512 102.741 84.0918 101.394 83.8253 100.086C83.7834 99.8816 83.8648 99.7164 84.0252 99.6177C81.1931 99.63 78.1835 99.2797 75.6919 97.8612C73.8984 96.8399 72.5317 95.2167 71.9939 93.2086C71.4512 91.1808 71.7325 89.0025 72.3862 87.0339C73.97 82.2678 77.6087 78.1283 81.8271 75.4837C86.2799 72.6911 91.7886 71.6205 96.7052 73.8531C96.9001 73.9419 97.09 74.0356 97.28 74.1318C96.8409 73.488 96.3105 72.9378 95.4569 72.6295C94.9956 72.4642 94.9882 72.3162 94.8698 71.8327C94.7316 71.2776 94.5885 70.7225 94.4381 70.1699C94.1544 69.1215 93.8485 68.078 93.5179 67.0419C92.2573 63.0849 90.6489 59.2365 88.6284 55.6052C87.5726 53.7057 86.4033 51.8727 85.1279 50.1114C84.7677 50.136 84.4371 49.6944 84.78 49.4206C85.7841 48.6189 86.3885 47.3903 86.6623 46.0557C86.6105 45.4661 86.3909 45.064 86.2651 44.8741C85.7199 44.0624 84.7356 43.7171 83.8155 44.0131C82.2662 44.5089 81.3929 46.5368 81.4768 49.4379L81.0032 49.4527C80.9119 46.3295 81.911 44.1266 83.6724 43.5617C84.7948 43.2015 85.9962 43.6233 86.6623 44.6101C86.7067 44.6767 86.7635 44.768 86.8202 44.8815C86.8991 43.6505 86.7215 42.4096 86.3367 41.3932C85.9074 40.2584 85.0539 39.2297 83.776 39.1187C81.9085 38.9559 80.3741 40.1992 79.6735 41.8397C78.8397 43.7886 78.6867 46.1199 78.9211 48.2093C78.9803 48.7447 78.1415 48.7397 78.0823 48.2093C77.8948 46.5368 77.9565 44.4744 78.4918 42.6612C70.4472 35.295 60.207 30.4993 49.5942 28.173C40.1829 26.1106 30.1006 26.6533 21.4934 31.264C17.1072 33.6125 13.2884 36.8935 10.1456 40.7419C8.78136 42.4145 7.52816 44.1735 6.52166 46.0878C5.59902 47.8418 4.84168 49.6772 4.18054 51.5446C2.65351 55.8494 1.60754 60.3269 0.887199 64.8315C0.15699 69.3855 -0.235252 74.0184 -0.131645 78.6315L-0.134109 78.6365Z" fill="#167A7A"/>
<path d="M41.9862 41.1147C45.8519 38.7291 53.0627 39.8886 56.2747 43.4163C58.342 45.6859 58.3198 48.471 56.2155 51.2611L56.1735 51.2291C55.9195 51.757 55.3891 52.3367 54.385 52.8967L54.1161 52.4132C55.3545 51.7224 55.9244 50.9651 55.8158 50.1658C55.6308 48.8115 53.4377 47.3363 50.6057 46.6529C48.4052 46.1225 45.435 46.0757 44.315 47.6841C43.3356 49.0878 43.9499 51.5226 46.0912 54.7247L45.6299 55.0331C43.3184 51.5769 42.7239 48.999 43.8586 47.3683C45.1365 45.5329 48.2473 45.5181 50.7315 46.1176C53.2478 46.722 56.0724 48.212 56.3536 50.0622C58.0435 47.2277 57.0616 45.1086 55.8602 43.7913C54.4541 42.2495 52.0192 41.0604 49.3451 40.6114C46.6019 40.1501 44.0264 40.5078 42.2724 41.5883C40.4715 42.7009 38.7274 45.0765 40.6516 50.0745L40.136 50.2744C39.2874 48.0714 39.058 46.1398 39.4552 44.5363C39.8129 43.0833 40.664 41.9337 41.9838 41.1196L41.9862 41.1147Z" fill="#167A7A"/>
<path d="M64.596 68.87C65.1856 68.87 65.6642 69.4769 65.6642 70.2243C65.6642 70.9718 65.1856 71.5787 64.596 71.5787C64.0064 71.5787 63.5278 70.9718 63.5278 70.2243C63.5278 69.4769 64.0064 68.87 64.596 68.87Z" fill="#167A7A"/>
<path d="M92.454 69.9407C91.8641 69.9407 91.3859 69.3343 91.3859 68.5863C91.3859 67.8384 91.8641 67.232 92.454 67.232C93.044 67.232 93.5222 67.8384 93.5222 68.5863C93.5222 69.3343 93.044 69.9407 92.454 69.9407Z" fill="#167A7A"/>
<path d="M55.2331 32.5839L55.2997 32.6505C53.9848 34.2935 52.406 33.4399 50.763 32.7813C46.8603 31.1556 44.2182 30.3143 41.5712 29.6063C37.8906 28.6196 34.7847 30.5462 33.2083 29.2314C39.2572 25.8122 50.3683 29.298 55.2331 32.5839Z" fill="#167A7A"/>
<path d="M79.0787 74.6353C79.1626 74.6007 79.1996 74.7364 79.1157 74.7734C72.3144 77.6301 67.9455 86.3285 70.2224 93.4505C70.8934 95.545 72.154 97.3631 73.8266 98.784C73.8957 98.8433 73.7945 98.9444 73.7255 98.8852C67.4175 93.5344 68.836 83.9331 73.9771 78.2937C75.4005 76.7322 77.1249 75.4592 79.0787 74.6377V74.6353Z" fill="#167A7A"/>
</g>
</svg>
