<svg width="111" height="42" viewBox="0 0 111 42" fill="none" xmlns="http://www.w3.org/2000/svg">
<g opacity="0.35" clip-path="url(#clip0_4403_15942)">
<path d="M21.2084 32.6906C21.1218 31.6 20.9355 30.5258 20.6906 29.4562C21.5891 29.005 22.4882 28.5621 23.3763 28.0863C23.9977 27.75 24.6184 27.4052 25.2301 27.0527C26.0834 26.5628 27.0093 26.0334 26.9508 24.873C26.902 23.9399 26.2233 23.3437 25.4436 22.9582C24.7863 22.6305 24.122 22.3203 23.4506 22.0275C22.2122 21.4842 20.9457 21.0107 19.6659 20.5805C19.6502 19.535 19.6087 18.483 19.517 17.435C19.4664 16.7974 19.3907 16.1618 19.3066 15.5269C19.2442 15.0591 19.1985 14.59 18.9387 14.1801C18.5909 13.6168 17.9909 13.2676 17.3133 13.3214C16.4016 13.3938 15.8657 14.1709 15.3276 14.813C14.8888 15.3291 14.4506 15.8535 14.0209 16.3773C13.2922 17.2709 12.5817 18.18 11.8801 19.0968C9.13869 18.1748 6.24317 17.8561 3.35979 18.2201C2.21788 18.3615 1.61826 19.6079 2.24322 20.5882C3.35873 22.34 4.5937 24.0063 5.90764 25.6072C5.07175 27.0581 4.28034 28.5392 3.58494 30.0634C3.18317 30.9395 2.80782 31.8304 2.45823 32.7277C2.14314 33.5294 1.81598 34.3912 2.09504 35.2554C2.76813 37.3716 5.09961 36.6292 6.62138 36.0778C8.20874 35.5043 9.72089 34.7258 11.1193 33.7874C12.0527 34.836 12.9861 35.8847 13.9196 36.9334C14.973 38.116 16.0362 39.3148 17.6332 39.7114C18.578 39.9487 19.5473 39.7535 20.1023 38.899C20.5073 38.2759 20.7233 37.4989 20.9106 36.7834C21.252 35.4646 21.3087 34.0587 21.2098 32.7074L21.2084 32.6906ZM14.487 33.0556C14.3946 32.9532 14.3107 32.8501 14.2191 32.7561C14.6764 31.9431 15.2046 31.1751 15.7946 30.4444C16.286 29.8482 16.8134 29.2829 17.3499 28.7254C17.3542 28.8854 17.3752 29.0441 17.4381 29.1996C17.4802 29.306 17.5384 29.4026 17.6049 29.4987C17.6667 29.747 17.7286 29.9954 17.7904 30.2437C17.8041 30.3102 17.8144 30.3347 17.8164 30.3598C17.8314 30.4431 17.8548 30.5256 17.8699 30.6089C17.8712 30.6256 17.8719 30.634 17.8732 30.6508C16.8352 31.1469 16.0099 31.9891 15.0471 32.6903C14.8641 32.823 14.6797 32.939 14.487 33.0556ZM22.6941 25.0085C22.2752 25.2444 21.8479 25.4809 21.4199 25.7091C20.8955 25.9956 20.3699 26.2652 19.8358 26.5356C19.7792 26.5654 19.6334 26.6361 19.6257 26.6452C19.4958 26.7061 19.375 26.7748 19.2452 26.8358C19.1886 26.8656 19.1398 26.8863 19.0832 26.9162C19.4708 26.497 19.8487 26.0618 20.2085 25.6111C20.5221 25.2148 20.7819 24.6707 20.7078 24.1617C20.9861 24.2746 21.2638 24.3792 21.5421 24.4922C21.9254 24.6559 22.3095 24.828 22.6935 25.0001L22.6941 25.0085ZM16.6698 21.6458C16.672 22.2028 17.0987 22.7008 17.6212 22.921C17.74 23.0382 17.8741 23.1373 18.0467 23.1911C18.2109 23.2456 18.3759 23.3085 18.5401 23.363C18.3343 23.4215 18.1299 23.4969 17.9576 23.5527C16.1735 24.1925 14.6986 25.4409 13.3636 26.7541C12.6217 27.48 11.9081 28.2458 11.1481 28.9562C10.7873 29.2888 10.4168 29.6052 10.0283 29.9062C9.82987 30.0571 9.61603 30.226 9.39885 30.353C9.35836 30.3731 9.25229 30.4153 9.19574 30.4451C9.28479 30.2945 9.34911 30.0446 9.41373 29.9044C9.5212 29.6679 9.6454 29.4301 9.77027 29.2007C10.0501 28.6973 10.3661 28.2248 10.7176 27.7747C11.382 26.92 12.1367 26.1425 12.9469 25.4281C13.7571 24.7137 14.6138 24.0547 15.4809 23.4202C16.0859 22.9838 16.8794 22.2708 16.4009 21.4392C15.9418 20.6399 14.742 21.0054 14.0366 21.2387C14.6927 20.3846 15.3571 19.5298 16.0395 18.6905C16.2082 18.4829 16.3776 18.2837 16.5469 18.0846C16.5562 18.202 16.5649 18.3111 16.5742 18.4285C16.6505 19.4946 16.6856 20.5724 16.6782 21.6451L16.6698 21.6458ZM6.28488 21.1367C7.14603 21.1696 8.00414 21.2703 8.85019 21.4311C8.3442 21.8427 7.91948 22.3239 7.58306 22.8571C7.14263 22.2927 6.70991 21.7192 6.29324 21.1361L6.28488 21.1367ZM8.85519 24.4614C8.76222 24.3506 8.68597 24.2384 8.593 24.1276C8.94185 23.433 9.44859 22.8187 10.1031 22.3699C10.3183 22.2178 10.4124 22.0246 10.4215 21.8212C10.844 21.9481 11.2742 22.0659 11.6917 22.2353C11.787 22.27 11.8733 22.2969 11.9673 22.3147C11.8877 22.3717 11.7984 22.4126 11.7187 22.4696C10.7693 23.1275 9.85238 23.8757 8.86355 24.4607L8.85519 24.4614ZM4.04575 33.64C4.04575 33.64 4.11533 33.6683 4.14242 33.6914C3.9875 33.7544 3.95338 33.7487 4.04575 33.64ZM5.48685 33.2385C5.52201 33.1513 5.5565 33.0557 5.59166 32.9685C5.92415 32.1739 6.26633 31.3953 6.64264 30.6226C7.37853 29.0783 8.19304 27.57 9.07778 26.0984C9.07778 26.0984 9.07645 26.0816 9.08415 26.0725C10.0218 25.5844 10.8888 24.9499 11.7392 24.3168C12.1367 24.0235 12.5433 23.7379 12.9596 23.4685C11.8987 24.3125 10.8837 25.2036 9.99845 26.2447C9.32102 27.0414 8.71651 27.9083 8.23509 28.8414C7.86315 29.5632 7.28166 30.614 7.7742 31.4107C7.92935 31.6685 8.11965 31.8391 8.32972 31.9406C7.86325 32.214 7.37805 32.4636 6.88182 32.6803C6.42675 32.8853 5.95295 33.0664 5.48618 33.2301L5.48685 33.2385ZM11.3813 30.9385C11.3813 30.9385 11.3258 30.8753 11.2896 30.8444C11.7628 30.4438 12.1768 30.0395 12.4432 29.7904C13.883 28.4182 15.1749 26.8804 16.8554 25.7846C17.2152 25.5449 17.5936 25.3292 17.9928 25.1624C18.2043 25.0696 18.4164 24.9852 18.6383 24.917C18.6717 24.9143 18.729 24.8929 18.8036 24.8785C18.758 24.9412 18.7125 25.0039 18.6657 25.0499C18.2711 25.4864 17.8758 25.9146 17.4715 26.335C15.9802 27.9055 14.4708 29.4605 13.3032 31.2924C13.2506 31.3725 13.1981 31.4527 13.1378 31.5419C13.0365 31.4317 12.9435 31.3209 12.8422 31.2108C12.4917 30.8249 11.8808 30.7637 11.3722 30.9307L11.3813 30.9385ZM15.5127 34.2067C16.0253 33.8789 16.4908 33.4874 16.9563 33.0959C17.217 32.881 17.4854 32.6571 17.7642 32.4576C17.3631 33.3421 16.8743 34.183 16.2709 34.9569C16.2555 34.975 16.2491 35.0008 16.2421 35.0183C16.122 34.8843 16.011 34.7581 15.8909 34.6241C15.7618 34.4824 15.6411 34.34 15.5127 34.2067ZM17.6939 36.4479C17.5862 36.3636 17.4785 36.2793 17.3792 36.1943C17.334 36.1557 17.2972 36.1164 17.2604 36.0771C17.3163 36.0389 17.3645 36.0097 17.4184 35.9464C17.6858 35.6043 17.9359 35.2552 18.1678 34.8907C18.1447 35.1289 18.1208 35.3587 18.081 35.5983C18.0461 35.7952 18.0022 35.9844 17.9583 36.1736C17.9526 36.2078 17.8709 36.4507 17.8525 36.5366C17.7906 36.4993 17.728 36.4536 17.7113 36.4549L17.6939 36.4479Z" fill="#FC8C39"/>
<path d="M47.9587 22.2546C51.3713 18.1678 56.6321 15.9434 61.9224 16.1057C64.4119 16.1866 67.1313 16.8317 69.1542 18.351C70.9443 19.6947 72.1865 21.8754 70.8703 23.9554C70.5934 24.391 70.227 24.7578 69.803 25.0363C69.4111 25.2953 69.0176 25.4279 68.5787 25.4121C67.8353 25.3783 67.1611 24.7311 66.8773 24.0192C66.0971 22.0382 66.8694 19.6806 67.8754 17.8279C70.0571 13.8219 74.1156 11.0851 78.4699 9.95418C80.5812 9.40661 82.9034 9.28972 85.0616 9.65017C87.3729 10.0322 89.835 10.9342 91.4871 12.6602C92.2396 13.4446 92.7946 14.498 92.7009 15.5439C92.616 16.4877 92.1262 17.4214 91.3402 17.8047C89.6614 18.6049 88.2889 16.0547 88.5872 14.5114C89.0688 11.9912 91.7589 10.3593 93.8747 9.33856C96.574 8.03515 99.493 7.27147 102.482 7.06788C105.454 6.86561 108.478 7.21637 111.313 8.15618C113.76 8.9665 116.76 10.29 117.87 12.8105C118.362 13.9279 118.515 15.3172 117.887 16.4223C117.466 17.1649 116.765 17.5582 116.145 17.692C114.372 18.0522 112.363 17.2325 111.396 15.6631C110.894 14.8503 110.697 13.5405 110.832 12.483C110.995 11.246 111.456 10.0612 112.14 9.01921C113.732 6.59652 116.373 5.19642 119.012 4.20166C120.418 3.67633 121.849 3.25035 123.288 2.8237C123.979 2.61689 124.323 1.7622 124.087 1.11407C123.828 0.400153 123.073 0.113991 122.382 0.312407C118.886 1.34137 115.22 2.45139 112.371 4.83883C109.822 6.97452 108.014 10.1658 108.141 13.5747C108.263 16.697 110.245 19.182 113.181 20.1139C115.84 20.9579 118.907 20.1487 120.295 17.5903C122.062 14.3094 120.218 10.3784 117.487 8.3075C114.656 6.16006 110.972 5.02594 107.494 4.57616C103.837 4.10678 100.115 4.40239 96.5786 5.44306C93.3467 6.40043 89.764 8.02727 87.5865 10.7075C86.5358 11.9982 85.8207 13.5914 85.8787 15.2752C85.922 16.7745 86.612 18.2562 87.6722 19.3116C88.7776 20.4057 90.3535 20.8546 91.8622 20.4562C93.3297 20.0695 94.475 18.8051 94.9783 17.406C96.2475 13.8861 94.0067 10.7886 91.0795 9.01182C88.5598 7.48975 85.5777 6.82328 82.6631 6.79306C76.9933 6.72839 71.249 9.3289 67.5603 13.6487C65.7191 15.7957 64.1872 18.5513 63.9608 21.4227C63.8458 22.943 64.0186 24.4826 64.806 25.813C65.5851 27.1441 67.0181 28.018 68.5544 28.0733C71.7203 28.1933 74.1363 24.9116 74.1115 21.9504C74.0786 18.5678 71.0527 15.9715 68.1792 14.7646C62.1359 12.2223 54.7751 13.44 49.5101 17.2012C48.1883 18.1504 46.9731 19.2769 45.9275 20.5249C44.8287 21.8447 46.8516 23.5751 47.9504 22.2553L47.9587 22.2546Z" fill="#FC8C39"/>
</g>
<defs>
<clipPath id="clip0_4403_15942">
<rect width="124.206" height="31.3313" fill="white" transform="translate(0 9.8335) rotate(-4.54091)"/>
</clipPath>
</defs>
</svg>
