<svg width="115" height="53" viewBox="0 0 115 53" fill="none" xmlns="http://www.w3.org/2000/svg">
<g opacity="0.35">
<path d="M60.0771 0.234641C52.2265 -0.684007 43.2958 1.05234 37.121 6.20753C36.9056 6.38588 36.8989 6.81996 37.121 6.99831C40.7114 9.8653 45.7859 10.4979 50.2277 10.6594C55.7463 10.8613 61.3894 10.1951 66.7061 8.70437C69.2232 8.00108 71.7334 7.09253 73.9846 5.74316C74.3211 5.54126 74.3178 5.14419 74.0991 4.86489C70.835 0.725932 64.6703 0.466826 59.855 0.00918521C59.1382 -0.058115 59.145 1.05907 59.855 1.12637C64.3843 1.55709 70.236 1.75899 73.3116 5.65231C73.3487 5.35955 73.3857 5.06679 73.4261 4.77404C69.3779 7.19684 64.5155 8.31066 59.8953 8.98703C54.7873 9.73406 49.3864 9.92587 44.312 8.85916C42.0642 8.38806 39.7356 7.65449 37.9151 6.2008V6.99158C43.8611 2.02819 52.5462 0.466826 60.0838 1.34846C60.7972 1.43258 60.7904 0.315401 60.0838 0.231276L60.0771 0.234641Z" fill="#0669AB"/>
<path d="M36.5099 7.49314C36.5099 8.59686 36.5469 9.6804 36.7522 10.7707C36.8868 11.4773 37.9602 11.1778 37.829 10.4745C37.6439 9.48859 37.6271 8.49591 37.6271 7.4965C37.6271 6.77639 36.5099 6.77639 36.5099 7.4965V7.49314Z" fill="#0669AB"/>
<path d="M37.0099 11.5509C41.2868 14.4381 46.9299 15.2793 51.9707 15.562C57.7955 15.8884 63.9602 15.3769 69.4452 13.2805C71.9185 12.335 74.3447 11.0226 76.1079 9.00697C76.579 8.46857 75.7916 7.67442 75.3172 8.21619C72.0565 11.9446 66.5984 13.3276 61.8941 14.0276C56.2544 14.8654 50.305 14.7376 44.7427 13.4521C42.2324 12.87 39.7187 12.0388 37.5718 10.5885C36.9762 10.1847 36.4143 11.1538 37.0065 11.5543L37.0099 11.5509Z" fill="#0669AB"/>
<path d="M74.2811 5.55819C74.022 6.99169 74.059 8.442 74.2811 9.8755C74.3887 10.5822 75.4655 10.2827 75.3579 9.57938C75.1694 8.35451 75.1358 7.07581 75.3579 5.85431C75.4857 5.15103 74.4089 4.85154 74.2811 5.55819Z" fill="#0669AB"/>
<path d="M36.9566 11.9617C36.7245 13.7182 36.7413 15.5286 37.1989 17.2481C37.384 17.9413 38.4608 17.6486 38.2757 16.952C37.845 15.3267 37.8517 13.6206 38.0738 11.9617C38.1681 11.2517 37.0509 11.2584 36.9566 11.9617Z" fill="#0669AB"/>
<path d="M37.2333 17.5812C41.5641 20.4986 46.9447 21.599 52.0966 21.7437C57.6522 21.8985 63.3323 20.9361 68.4505 18.7387C71.0853 17.6081 73.5687 16.1107 75.6617 14.1421C76.1867 13.6508 75.3959 12.8601 74.8709 13.3514C71.1459 16.8476 66.1589 18.7993 61.2191 19.8223C56.0302 20.8957 50.5116 20.9933 45.3396 19.7785C42.6644 19.1526 40.0835 18.1532 37.7953 16.6154C37.1963 16.2116 36.6377 17.1807 37.2299 17.5812H37.2333Z" fill="#0669AB"/>
<path d="M74.2606 10.1749C74.2606 11.5983 74.2943 13.0082 74.4827 14.4182C74.5769 15.1215 75.6941 15.1282 75.5999 14.4182C75.4115 13.0049 75.3778 11.5949 75.3778 10.1749C75.3778 9.4548 74.2606 9.4548 74.2606 10.1749Z" fill="#0669AB"/>
<path d="M37.425 17.3964C36.9 18.8232 37.0683 20.2634 37.7043 21.6229C38.0071 22.2723 38.9729 21.707 38.67 21.0576C38.1552 19.9572 38.0845 18.8299 38.5018 17.6892C38.7508 17.0128 37.6706 16.7234 37.425 17.3931V17.3964Z" fill="#0669AB"/>
<path d="M37.7911 21.737C38.9284 23.1638 40.8566 23.8772 42.5492 24.3752C45.0528 25.1121 47.6876 25.4318 50.2887 25.5765C56.3457 25.9097 62.7258 25.3006 68.4497 23.2076C71.1922 22.2048 73.9111 20.8049 75.8863 18.6076C76.3642 18.0759 75.5801 17.2818 75.0956 17.8168C71.5253 21.7875 65.6062 23.2412 60.5318 23.995C55.0906 24.8026 49.2388 24.8833 43.8649 23.571C42.0276 23.1234 39.8101 22.4908 38.5785 20.9463C38.1309 20.3843 37.3435 21.1785 37.7877 21.737H37.7911Z" fill="#0669AB"/>
<path d="M74.5071 14.3439C74.9378 15.7135 75.1599 17.1739 75.4022 18.5872C75.5233 19.2939 76.5967 18.9944 76.479 18.2911C76.2401 16.8778 76.018 15.4174 75.5839 14.0478C75.3685 13.3647 74.2917 13.6575 74.5071 14.3439Z" fill="#0669AB"/>
<path d="M42.0581 23.8603C42.0581 24.5669 42.0009 25.2702 42.0009 25.9735C42.0009 26.6936 43.1147 26.6936 43.118 25.9735C43.118 25.2668 43.1752 24.5636 43.1752 23.8603C43.1752 23.1402 42.0614 23.1402 42.0581 23.8603Z" fill="#0669AB"/>
<path d="M42.6197 26.7073C47.048 29.3252 52.6373 29.8367 57.6747 29.6819C63.338 29.5036 69.1494 28.3729 74.2575 25.866C76.7577 24.6378 79.1435 23.0091 80.8765 20.8017C81.3173 20.2431 80.5299 19.4456 80.0857 20.0109C76.9629 23.9816 71.8784 26.0511 67.1169 27.2524C61.78 28.6018 56.0427 29.0257 50.588 28.171C48.0171 27.7672 45.4362 27.0774 43.1816 25.7415C42.5625 25.3747 42.0005 26.3405 42.6163 26.7073H42.6197Z" fill="#0669AB"/>
<path d="M55.5281 25.5629C64.368 25.149 74.3318 23.0829 80.6714 16.4201C81.1661 15.8986 80.3787 15.1078 79.8807 15.6294C73.7496 22.0734 64.0718 24.0486 55.5281 24.4457C54.8113 24.4793 54.808 25.5965 55.5281 25.5629Z" fill="#0669AB"/>
<path d="M79.7734 16.2824V20.3036C79.7734 21.0237 80.8906 21.0237 80.8906 20.3036V16.2824C80.8906 15.5623 79.7734 15.5623 79.7734 16.2824Z" fill="#0669AB"/>
<path d="M80.298 15.5892C79.0025 14.3778 77.1753 13.8966 75.4356 13.8629C74.7155 13.8495 74.7155 14.9633 75.4356 14.9801C76.8691 15.0104 78.4338 15.3738 79.5073 16.3799C80.0322 16.8712 80.823 16.0838 80.298 15.5892Z" fill="#0669AB"/>
<path d="M37.7373 28.6827C37.7373 29.8268 37.7373 30.9709 37.8854 32.1082C37.9762 32.8115 39.0968 32.8183 39.0025 32.1082C38.8545 30.9709 38.8545 29.8268 38.8545 28.6827C38.8545 27.9626 37.7373 27.9626 37.7373 28.6827Z" fill="#0669AB"/>
<path d="M38.31 29.1637C42.4288 32.0375 47.5941 32.9326 52.5272 32.9628C58.0155 32.9965 63.524 32.0173 68.7835 30.4828C71.4284 29.7122 74.0262 28.7801 76.55 27.673C77.2061 27.3837 76.6375 26.4213 75.9846 26.7073C71.4823 28.6826 66.7006 30.0925 61.8651 30.9708C56.7603 31.8995 51.373 32.2831 46.2548 31.2332C43.62 30.6915 41.0861 29.7392 38.872 28.1946C38.2797 27.7841 37.7211 28.7499 38.3066 29.1604L38.31 29.1637Z" fill="#0669AB"/>
<path d="M38.7008 28.8171C40.2083 28.0734 41.6654 27.6225 43.358 27.6023C44.0747 27.5956 44.0781 26.4784 43.358 26.4851C41.4668 26.5053 39.8213 27.0202 38.1388 27.8513C37.4927 28.171 38.0581 29.1334 38.7041 28.8171H38.7008Z" fill="#0669AB"/>
<path d="M38.0531 32.7706C42.5185 35.6039 47.8991 36.8759 53.125 37.2427C58.6638 37.633 64.4483 36.9937 69.5934 34.8333C72.1878 33.7464 74.6072 32.2423 76.5656 30.2064C77.0637 29.6882 76.2763 28.8974 75.7749 29.4157C72.2719 33.06 67.295 34.8872 62.4023 35.715C57.0789 36.6134 51.4761 36.3745 46.2503 35.0117C43.565 34.3117 40.9639 33.2955 38.6184 31.8048C38.0094 31.4178 37.4474 32.3836 38.0531 32.7706Z" fill="#0669AB"/>
<path d="M75.5603 27.3434C75.5603 28.1442 75.5839 28.935 75.7286 29.7258C75.8598 30.4324 76.9366 30.133 76.8054 29.4297C76.6775 28.7398 76.6775 28.0433 76.6775 27.3434C76.6775 26.6233 75.5603 26.6233 75.5603 27.3434Z" fill="#0669AB"/>
<path d="M75.9668 26.3572C75.0751 26.199 74.2339 25.9163 73.4195 25.5193C72.7768 25.2063 72.2081 26.1687 72.8542 26.485C73.7527 26.9225 74.6814 27.259 75.6674 27.434C76.3706 27.5585 76.6701 26.485 75.9635 26.3572H75.9668Z" fill="#0669AB"/>
<path d="M23.6276 23.0628C19.6266 23.1469 15.6122 23.157 11.6347 23.6349C7.79526 24.0959 3.88511 24.9439 0.563849 27.01C0.160048 27.2623 0.227349 27.8983 0.69845 28.0296C4.58504 29.1266 8.63651 29.6851 12.6644 29.8904C16.9582 30.1091 21.3327 29.9274 25.5389 28.9852C27.6589 28.5108 29.7385 27.8176 31.6565 26.7845C32.0334 26.5826 32.0031 26.0307 31.6565 25.8188C28.6112 23.9646 24.9366 23.9781 21.5447 23.2311C20.8448 23.0763 20.5453 24.1531 21.2486 24.3079C24.5294 25.0313 28.1468 24.991 31.0912 26.7845V25.8188C26.5888 28.2449 21.1846 28.8136 16.1472 28.8506C11.0627 28.891 5.89402 28.3391 0.994571 26.9528C1.03832 27.2926 1.08206 27.6325 1.12917 27.9724C4.42688 25.9163 8.35385 25.1054 12.1731 24.6881C15.979 24.2708 19.8083 24.2574 23.631 24.1766C24.3477 24.1632 24.3511 23.046 23.631 23.0594L23.6276 23.0628Z" fill="#0669AB"/>
<path d="M0.00898563 27.7873C0.163776 28.7295 0.301741 29.6751 0.456532 30.6173C0.574307 31.3239 1.65111 31.0244 1.53333 30.3211C1.37854 29.3789 1.24058 28.4334 1.08579 27.4912C0.968013 26.7845 -0.10879 27.084 0.00898563 27.7873Z" fill="#0669AB"/>
<path d="M0.712857 30.9505C4.3538 33.1075 8.69466 34.0565 12.8605 34.5006C17.4706 34.9919 22.3431 34.8237 26.7816 33.3834C28.9318 32.6869 30.9878 31.6572 32.6603 30.1194C33.1919 29.6315 32.3978 28.8441 31.8695 29.3286C28.8679 32.0879 24.5506 33.1075 20.6001 33.4642C16.1582 33.868 11.5953 33.4979 7.28135 32.3672C5.19505 31.8187 3.13903 31.0885 1.27818 29.9848C0.659017 29.618 0.0970601 30.5838 0.712857 30.9505Z" fill="#0669AB"/>
<path d="M31.4279 26.7477C31.5692 27.737 31.6937 28.7264 31.7072 29.7258C31.7139 30.4425 32.8311 30.4459 32.8243 29.7258C32.8142 28.6254 32.6628 27.5385 32.508 26.4516C32.4071 25.7416 31.3303 26.0444 31.4312 26.7477H31.4279Z" fill="#0669AB"/>
<path d="M80.6622 27.902C91.6826 26.5829 103.14 25.459 114.02 28.3293C114.716 28.5144 115.012 27.4342 114.316 27.2525C103.336 24.3553 91.7903 25.4556 80.6622 26.7848C79.959 26.8689 79.9489 27.9861 80.6622 27.902Z" fill="#0669AB"/>
<path d="M80.5101 28.4773C84.4506 30.0554 88.7982 30.5198 93.0078 30.6477C97.6885 30.7924 102.386 30.4592 107.03 29.8636C109.318 29.5709 111.599 29.2108 113.867 28.7734C114.574 28.6388 114.275 27.562 113.571 27.6966C109.392 28.5008 105.166 29.0594 100.919 29.3522C96.4266 29.6617 91.8603 29.7122 87.3916 29.0729C85.1471 28.7498 82.9195 28.2417 80.8096 27.3971C80.1434 27.1313 79.854 28.2081 80.5135 28.4739L80.5101 28.4773Z" fill="#0669AB"/>
<path d="M79.9715 28.5344C80.2744 29.4766 80.5234 30.5198 80.5469 31.5125C80.5638 32.2292 81.681 32.2326 81.6641 31.5125C81.6406 30.4222 81.3815 29.2714 81.0483 28.2383C80.8296 27.5552 79.7528 27.848 79.9715 28.5344Z" fill="#0669AB"/>
<path d="M80.9753 32.1416C84.9325 34.0024 89.7041 34.4264 94.0079 34.6923C99.1261 35.0119 104.544 34.9514 109.511 33.528C111.445 32.9728 113.528 32.1483 114.861 30.5668C115.322 30.0216 114.535 29.2275 114.07 29.776C112.946 31.1119 111.247 31.8286 109.615 32.3334C107.404 33.0165 105.089 33.3463 102.787 33.5313C97.7465 33.9385 92.5745 33.7131 87.5909 32.8449C85.5517 32.4916 83.425 32.0642 81.5406 31.1758C80.8945 30.873 80.3258 31.8354 80.9753 32.1416Z" fill="#0669AB"/>
<path d="M113.329 28.3828C113.463 29.2678 113.457 30.1696 113.457 31.0647C113.457 31.7848 114.574 31.7848 114.574 31.0647C114.574 30.0653 114.557 29.076 114.406 28.0867C114.298 27.38 113.221 27.6795 113.329 28.3828Z" fill="#0669AB"/>
<path d="M40.901 44.8582C50.9961 48.7414 62.565 47.1969 72.7105 44.3198C75.6044 43.4987 78.4545 42.5296 81.2542 41.4326C81.9171 41.1735 81.6278 40.0933 80.9581 40.3558C71.1895 44.1751 60.3777 46.8604 49.8284 45.797C46.8773 45.5009 43.9666 44.8447 41.1972 43.778C40.5275 43.5189 40.2348 44.5991 40.901 44.8548V44.8582Z" fill="#0669AB"/>
<path d="M40.6008 44.4106C45.6517 42.5801 50.8136 41.0221 56.0698 39.9083C61.6153 38.7339 67.3392 38.0104 73.0126 38.4445C75.9872 38.6733 78.9316 39.2655 81.701 40.3895C82.3673 40.6587 82.6567 39.5785 81.9972 39.3127C76.9395 37.2566 71.3132 36.9605 65.9259 37.3475C60.1145 37.7647 54.3738 38.9829 48.7811 40.5779C45.9243 41.3922 43.0976 42.321 40.3047 43.3338C39.635 43.5761 39.9244 44.6563 40.6008 44.4106Z" fill="#0669AB"/>
<path d="M80.8467 39.8511C80.8568 41.0726 81.0015 42.284 81.4625 43.4247C81.7283 44.0809 82.8085 43.7949 82.5393 43.1286C82.112 42.0753 81.974 40.9817 81.9639 39.8511C81.9572 39.1343 80.84 39.131 80.8467 39.8511Z" fill="#0669AB"/>
<path d="M40.342 44.0201C40.2074 45.1676 40.2074 46.2982 40.342 47.4457C40.4262 48.1524 41.5433 48.1591 41.4592 47.4457C41.3246 46.2982 41.3246 45.1676 41.4592 44.0201C41.5433 43.3067 40.4262 43.3135 40.342 44.0201Z" fill="#0669AB"/>
<path d="M40.3216 47.927C45.2412 50.5012 50.9112 51.6285 56.4097 52.0054C62.4128 52.4159 68.7121 51.9011 74.362 49.7138C77.2256 48.6067 79.9176 47.0454 82.0948 44.8615C82.6029 44.35 81.8121 43.5626 81.304 44.0707C77.4275 47.964 71.9156 49.7609 66.5922 50.545C60.801 51.3963 54.7574 51.1103 49.0504 49.8282C46.2305 49.1956 43.4443 48.3072 40.8801 46.9612C40.2442 46.6281 39.6788 47.5905 40.3148 47.927H40.3216Z" fill="#0669AB"/>
<path d="M6.68848 37.9161V42.2334C6.68848 42.9535 7.80566 42.9535 7.80566 42.2334V37.9161C7.80566 37.1959 6.68848 37.1959 6.68848 37.9161Z" fill="#0669AB"/>
<path d="M7.08266 39.141C10.7875 36.6644 15.4313 35.8971 19.7923 35.5606C24.6514 35.1871 29.5407 35.3991 34.3998 35.7289C36.7654 35.887 39.131 36.0856 41.4966 36.237C42.2134 36.2841 42.21 35.1669 41.4966 35.1198C32.1621 34.5208 22.4372 33.2152 13.2137 35.4159C10.8582 35.9779 8.53971 36.8259 6.51734 38.1752C5.92174 38.5723 6.48033 39.5414 7.08266 39.141Z" fill="#0669AB"/>
<path d="M7.39523 39.3663C18.8733 40.8704 30.7215 39.6826 41.7924 36.3681C42.4788 36.1628 42.1861 35.0826 41.4962 35.2913C30.5095 38.5789 18.7858 39.7432 7.39523 38.2491C6.68521 38.1549 6.69194 39.2754 7.39523 39.3663Z" fill="#0669AB"/>
<path d="M6.79968 42.9199C11.228 44.2457 15.865 44.9591 20.4784 45.198C25.3409 45.4504 30.3783 45.1845 35.0523 43.7275C37.4112 42.9905 39.6489 41.9272 41.5939 40.3927C42.1592 39.9486 41.3617 39.1612 40.8031 39.602C37.317 42.3512 32.7372 43.4616 28.403 43.9125C23.618 44.4072 18.7387 44.1548 13.9941 43.3943C11.6655 43.0208 9.35709 42.5161 7.09581 41.8397C6.40598 41.6344 6.10986 42.7112 6.79968 42.9165V42.9199Z" fill="#0669AB"/>
<path d="M41.5331 35.6817C41.5331 37.0243 41.5432 38.3636 41.6811 39.7029C41.7552 40.4095 42.8724 40.4196 42.7983 39.7029C42.6604 38.367 42.6503 37.0243 42.6503 35.6817C42.6503 34.9616 41.5331 34.9616 41.5331 35.6817Z" fill="#0669AB"/>
<path d="M81.4324 19.2672C85.1541 18.2173 89.0373 17.6823 92.8969 17.5409C96.7297 17.403 100.764 17.5981 104.362 19.0417C105.028 19.3109 105.317 18.2307 104.658 17.9649C100.98 16.4877 96.8138 16.279 92.8936 16.4237C88.9363 16.5684 84.9454 17.1136 81.1295 18.187C80.4397 18.3822 80.7324 19.459 81.4256 19.2638L81.4324 19.2672Z" fill="#0669AB"/>
<path d="M104.143 17.7429C100.401 19.0115 96.4333 19.5196 92.4996 19.6912C88.5054 19.8628 84.4774 19.6811 80.5236 19.0822C79.8203 18.9745 79.5174 20.0513 80.2274 20.159C84.2823 20.7714 88.401 20.9834 92.4996 20.8084C96.5242 20.6368 100.609 20.1186 104.439 18.8197C105.115 18.5909 104.826 17.5107 104.143 17.7429Z" fill="#0669AB"/>
<path d="M103.621 18.6144V20.6233C103.621 21.3434 104.738 21.3434 104.738 20.6233V18.6144C104.738 17.8943 103.621 17.8943 103.621 18.6144Z" fill="#0669AB"/>
<path d="M104.031 20.4213C100.013 21.8683 95.7696 22.6995 91.5162 23.0326C87.2595 23.3657 82.9018 23.2278 78.7527 22.1678C78.0562 21.9894 77.7601 23.0662 78.4566 23.2446C82.7033 24.3315 87.1653 24.4896 91.5196 24.1498C95.8705 23.8099 100.218 22.9787 104.33 21.4981C105 21.2559 104.71 20.1757 104.034 20.4213H104.031Z" fill="#0669AB"/>
<path d="M60.63 2.32429C56.9958 1.3619 52.7525 1.24076 49.3707 3.08815C48.9871 3.29678 49.0308 3.83182 49.3707 4.05391C53.0049 6.41614 57.8135 3.15881 61.3131 5.77343C61.2761 5.48067 61.2391 5.18791 61.1987 4.89516C59.3345 6.4397 56.3262 6.82667 54.0043 6.97137C52.0459 7.09251 48.7852 7.25067 47.4156 5.50423C46.9714 4.9389 46.1874 5.73305 46.6248 6.295C48.1896 8.28709 51.7531 8.22988 54.0043 8.09192C56.666 7.92703 59.8661 7.4492 61.9895 5.6893C62.2957 5.43692 62.1375 5.0062 61.875 4.81103C60.1892 3.54915 58.076 3.53569 56.0637 3.68376C54.0413 3.83518 51.7363 4.26254 49.9326 3.08815V4.05391C53.0453 2.35458 56.9958 2.51946 60.3305 3.40109C61.0271 3.58617 61.3232 2.50937 60.6266 2.32429H60.63Z" fill="#0669AB"/>
<path d="M53.9254 1.06268C52.5222 3.49895 51.4891 6.11693 50.2811 8.65414C49.9748 9.30022 50.9372 9.86555 51.2468 9.21946C52.4549 6.68561 53.4879 4.06763 54.8911 1.628C55.2512 1.00548 54.2854 0.440155 53.9254 1.06268Z" fill="#0669AB"/>
<path d="M57.4701 0.961551C56.2822 3.37763 55.4141 5.97205 54.7815 8.5833C54.6132 9.27985 55.69 9.57934 55.8583 8.87942C56.4673 6.36239 57.2884 3.85209 58.4325 1.52351C58.7488 0.880791 57.7864 0.315469 57.4667 0.958186L57.4701 0.961551Z" fill="#0669AB"/>
<path d="M69.0752 42.4455C67.8874 41.0692 66.1241 39.0165 64.0782 39.1814C63.0148 39.2655 60.9487 40.7461 61.615 41.9912C61.8505 42.432 62.3654 42.6507 62.7456 42.9368C62.8499 43.0142 63.0283 43.2161 63.035 43.1286C63.0148 43.4045 62.1231 43.741 61.9246 43.8218C60.0267 44.5957 57.2237 42.9132 56.5708 41.0692C56.3319 40.3962 55.2518 40.6856 55.494 41.3653C56.1435 43.1959 58.0716 44.5923 59.9291 45.0062C60.979 45.2384 61.9279 45.1038 62.8769 44.6024C63.4321 44.3097 64.1657 43.8554 64.1556 43.1353C64.1488 42.5767 63.6811 42.2267 63.2672 41.9374C63.0788 41.8061 62.8499 41.6984 62.6851 41.5336C62.5841 41.436 62.5875 41.409 62.5908 41.5975C62.5908 41.4292 62.9374 41.0692 63.0384 40.9514C64.7478 38.9862 67.2211 41.9912 68.2912 43.2295C68.7623 43.7746 69.5497 42.9805 69.0819 42.4387L69.0752 42.4455Z" fill="#0669AB"/>
<path d="M53.0723 44.2323C58.0088 41.658 63.7529 41.3619 69.1302 40.3423C69.8368 40.2077 69.5373 39.1309 68.8341 39.2655C63.3424 40.3087 57.5512 40.6384 52.507 43.2699C51.871 43.603 52.433 44.5654 53.0723 44.2356V44.2323Z" fill="#0669AB"/>
<path d="M54.7604 44.9961C59.5926 43.4045 64.63 42.6743 69.6371 41.86C70.3438 41.7455 70.0443 40.6687 69.341 40.7832C64.3339 41.5975 59.2964 42.3311 54.4643 43.9193C53.7846 44.1414 54.0773 45.2216 54.7604 44.9961Z" fill="#0669AB"/>
<path d="M20.1495 24.1834C17.9892 23.5743 15.9634 24.3112 14.2439 25.6438C13.8334 25.9635 14.2069 26.5793 14.6376 26.5961C16.6028 26.6836 18.7126 26.4985 20.4288 27.6325V26.6668C18.6453 27.646 16.411 27.8008 14.6174 26.7677C13.9915 26.4076 13.4296 27.3734 14.0521 27.7335C16.199 28.9651 18.8573 28.8069 20.9908 27.6325C21.3744 27.4205 21.3273 26.8922 20.9908 26.6668C19.0996 25.4183 16.8047 25.5731 14.6376 25.4789C14.7689 25.7952 14.9001 26.1149 15.0313 26.4312C16.4312 25.3477 18.1036 24.7655 19.8534 25.2602C20.5466 25.4554 20.8427 24.3785 20.1495 24.1834Z" fill="#0669AB"/>
<path d="M16.4274 23.5644C15.9429 25.0584 15.6131 26.5996 15.2126 28.1172C15.0276 28.8138 16.1077 29.1099 16.2895 28.4133C16.6899 26.8957 17.0197 25.3545 17.5042 23.8605C17.7263 23.174 16.6495 22.8813 16.4274 23.5644Z" fill="#0669AB"/>
<path d="M18.0251 24.4188C18.0183 25.5932 17.9275 26.7541 17.7424 27.9151C17.6314 28.6183 18.7048 28.9212 18.8192 28.2112C19.0211 26.9527 19.1355 25.6941 19.1423 24.4188C19.1456 23.6987 18.0284 23.6987 18.0251 24.4188Z" fill="#0669AB"/>
<path d="M16.0999 37.9126C20.1817 36.6339 24.4956 37.1084 28.7019 36.819C29.4153 36.7685 29.422 35.6513 28.7019 35.7018C24.3947 35.9979 19.9832 35.5234 15.8004 36.8358C15.1174 37.0512 15.4101 38.128 16.0966 37.9126H16.0999Z" fill="#0669AB"/>
<path d="M18.0255 38.6193C21.4982 38.1112 25.0012 37.7444 28.5041 37.5257C29.2175 37.4819 29.2243 36.3647 28.5041 36.4085C24.9036 36.6339 21.2997 37.0175 17.7294 37.5425C17.0194 37.6468 17.3222 38.7236 18.0255 38.6193Z" fill="#0669AB"/>
<path d="M38.9347 7.76223C39.0424 8.9669 39.2174 10.1615 39.325 11.3662C39.3318 11.4469 39.5842 11.4368 39.5774 11.3628C39.4697 10.1581 39.2948 8.96354 39.1871 7.75887C39.1803 7.67811 38.928 7.6882 38.9347 7.76223Z" fill="#0669AB"/>
<path d="M40.6975 9.03746C40.896 10.2388 41.0844 11.4401 41.283 12.6414C41.3065 12.7794 41.5421 12.7726 41.5151 12.6145C41.3166 11.4132 41.1282 10.2118 40.9296 9.01054C40.9061 8.87258 40.6705 8.87931 40.6975 9.03746Z" fill="#0669AB"/>
<path d="M42.8391 9.84521C43.0343 10.9254 43.2396 11.9988 43.5222 13.0588C43.5592 13.1934 43.7914 13.0992 43.7611 12.978C43.4785 11.9181 43.2766 10.8413 43.078 9.76445C43.0545 9.62985 42.8189 9.72071 42.8391 9.84521Z" fill="#0669AB"/>
<path d="M45.2121 10.3397C45.4005 11.4737 45.5957 12.6043 45.7 13.7484C45.7067 13.8225 45.8851 13.9874 45.8716 13.8494C45.7673 12.7053 45.5755 11.5746 45.3837 10.4406C45.3702 10.3666 45.1885 10.2051 45.2121 10.3397Z" fill="#0669AB"/>
<path d="M48.0948 11.1641C48.1015 12.1097 48.2024 13.0856 48.4851 13.9874C48.5188 14.0984 48.7745 14.1153 48.7341 13.9908C48.4515 13.0856 48.3539 12.1097 48.3438 11.1675C48.3438 11.0497 48.0914 11.0295 48.0948 11.1641Z" fill="#0669AB"/>
<path d="M50.2354 10.8713C50.3431 12.1769 50.5248 13.4725 50.7233 14.768C50.7334 14.8252 50.9824 14.8117 50.9757 14.7747C50.7772 13.4792 50.5954 12.1837 50.4878 10.8781C50.4844 10.8242 50.232 10.8309 50.2354 10.8713Z" fill="#0669AB"/>
<path d="M52.8832 10.794C53.1726 12.0458 53.4553 13.2942 53.6572 14.5628C53.6774 14.6941 53.9129 14.7479 53.886 14.5898C53.6807 13.301 53.3947 12.0324 53.102 10.7604C53.0717 10.6224 52.8462 10.6325 52.8832 10.794Z" fill="#0669AB"/>
<path d="M56.3764 10.1377C56.5682 11.3693 56.76 12.5975 56.8643 13.8392C56.8677 13.8931 57.11 13.8358 57.1032 13.7551C56.9989 12.5134 56.8071 11.2852 56.6153 10.0536C56.6052 9.99637 56.3629 10.0603 56.3764 10.1377Z" fill="#0669AB"/>
<path d="M60.2694 9.82813C60.2829 11.4332 60.4579 13.0484 60.7607 14.6233C60.7809 14.7309 61.0198 14.6468 60.9996 14.5324C60.7001 12.971 60.5285 11.3727 60.5151 9.78102C60.5151 9.65652 60.2694 9.71709 60.2694 9.82477V9.82813Z" fill="#0669AB"/>
<path d="M62.3418 9.72727C62.4462 11.1036 62.6447 12.4664 62.9273 13.8191C62.9408 13.8864 63.1158 13.9739 63.1158 13.9739C62.8331 12.6212 62.638 11.2617 62.5303 9.88206C62.5269 9.81812 62.3385 9.71717 62.3418 9.72727Z" fill="#0669AB"/>
<path d="M63.7728 9.32329C63.894 10.8409 64.2507 12.3181 64.5535 13.8021C64.5703 13.8862 64.8227 13.8627 64.8059 13.7887C64.503 12.3013 64.1497 10.8241 64.0252 9.30983C64.0185 9.22571 63.7661 9.24253 63.7728 9.32329Z" fill="#0669AB"/>
<path d="M65.3342 9.14504C65.4453 10.7098 65.7111 12.2577 65.8222 13.819C65.8255 13.883 66.0779 13.8493 66.0712 13.7753C65.9601 12.2106 65.6943 10.6627 65.5832 9.10129C65.5799 9.03736 65.3275 9.07101 65.3342 9.14504Z" fill="#0669AB"/>
<path d="M67.5717 8.22994C67.7736 9.78794 68.0462 11.3358 68.1572 12.9039C68.164 12.9982 68.4163 13.015 68.4096 12.9342C68.2986 11.3661 68.026 9.81823 67.8241 8.26023C67.8106 8.16601 67.5616 8.15255 67.5717 8.22994Z" fill="#0669AB"/>
<path d="M69.325 8.43847C69.5303 9.57248 69.7187 10.7099 69.9105 11.8472C69.9274 11.9414 70.1797 11.9347 70.1629 11.854C69.9745 10.7166 69.7827 9.57921 69.5774 8.4452C69.5606 8.35098 69.3082 8.35771 69.325 8.43847Z" fill="#0669AB"/>
<path d="M71.373 7.68144C71.3798 9.02072 71.4706 10.3499 71.6658 11.6757C71.686 11.8238 71.935 11.7767 71.9148 11.6353C71.7196 10.3095 71.6288 8.98034 71.6221 7.64106C71.6221 7.493 71.373 7.54011 71.373 7.68144Z" fill="#0669AB"/>
<path d="M73.0265 6.47995C73.2116 7.74183 73.3193 9.00707 73.4168 10.279C73.4202 10.343 73.6726 10.3463 73.6692 10.3026C73.5716 9.03399 73.4673 7.76538 73.2789 6.5035C73.2688 6.4362 73.0198 6.43957 73.0265 6.47995Z" fill="#0669AB"/>
<path d="M39.5383 12.749C39.9858 14.4887 40.1036 16.3832 40.1171 18.1734C40.1171 18.3147 40.3526 18.3484 40.3526 18.1902C40.3391 16.3765 40.2146 14.4685 39.7604 12.7053C39.7233 12.5639 39.4979 12.5909 39.5383 12.749Z" fill="#0669AB"/>
<path d="M41.8791 13.3649C42.0642 15.1853 42.1752 17.0125 42.4646 18.8195C42.4781 18.8969 42.6935 19.0147 42.6766 18.9037C42.3872 17.0967 42.2796 15.2695 42.0911 13.449C42.0844 13.3716 41.869 13.2504 41.8791 13.3649Z" fill="#0669AB"/>
<path d="M44.5041 14.5427C44.7127 16.3665 44.9819 18.1837 45.2847 19.9974C45.2847 20.0109 45.5169 19.9335 45.5068 19.8729C45.2073 18.0591 44.9348 16.2454 44.7261 14.4182C44.7261 14.4081 44.4973 14.4788 44.5041 14.5427Z" fill="#0669AB"/>
<path d="M46.7594 15.5117C46.9478 16.9082 47.143 18.3047 47.3449 19.7012C47.3584 19.7887 47.5535 19.9266 47.5333 19.7819C47.3348 18.3855 47.1363 16.9923 46.9478 15.5925C46.9344 15.505 46.7392 15.367 46.7594 15.5117Z" fill="#0669AB"/>
<path d="M49.5925 15.7945C49.8752 17.2381 50.0703 18.6884 50.1747 20.1555C50.1814 20.2296 50.3564 20.3978 50.3496 20.3002C50.242 18.8196 50.0468 17.3525 49.7641 15.8954C49.7507 15.8214 49.5656 15.6632 49.5925 15.7978V15.7945Z" fill="#0669AB"/>
<path d="M51.2317 15.2324C51.336 17.2211 51.5279 19.2031 51.8172 21.175C51.8172 21.175 52.036 21.0976 52.0292 21.0337C51.7398 19.0618 51.548 17.0798 51.4437 15.0911C51.4437 15.0944 51.2284 15.1651 51.2317 15.2324Z" fill="#0669AB"/>
<path d="M54.0372 15.2562C54.2391 16.9152 54.5184 18.564 54.7203 20.223C54.7371 20.3643 54.9861 20.3878 54.9659 20.2297C54.764 18.5707 54.4847 16.9219 54.2828 15.2629C54.266 15.1216 54.017 15.098 54.0372 15.2562Z" fill="#0669AB"/>
<path d="M56.4741 16.1074C56.8678 17.6418 57.0495 19.2066 57.1572 20.7814C57.1639 20.8622 57.4062 20.9295 57.3995 20.8352C57.2952 19.257 57.1101 17.6923 56.7164 16.1612C56.6962 16.0805 56.4539 16.0266 56.4741 16.1074Z" fill="#0669AB"/>
<path d="M58.8692 15.9996C59.2528 17.4937 59.4413 19.0147 59.5456 20.5525C59.5489 20.6097 59.6936 20.8082 59.6835 20.6837C59.5792 19.1291 59.384 17.5913 58.9971 16.0804C58.9802 16.0131 58.8322 15.8449 58.8692 16.003V15.9996Z" fill="#0669AB"/>
<path d="M61.4472 15.2056C61.7298 16.6559 61.9183 18.1096 61.9351 19.5902C61.9351 19.6878 62.1673 19.5902 62.1639 19.4993C62.1505 18.0221 61.9587 16.565 61.676 15.1147C61.6558 15.0104 61.4304 15.1181 61.4472 15.2056Z" fill="#0669AB"/>
<path d="M64.4721 14.4485C64.7548 15.8013 64.95 17.1607 65.0576 18.5404C65.0576 18.5404 65.2764 18.4731 65.273 18.4058C65.1687 17.0295 64.9702 15.6667 64.6875 14.3139C64.6875 14.3038 64.4587 14.388 64.4721 14.4485Z" fill="#0669AB"/>
<path d="M67.396 13.8696C67.6786 15.3502 67.7829 16.8476 67.8839 18.3484C67.8906 18.4595 68.106 18.5571 68.0959 18.4023C67.9949 16.9015 67.8906 15.404 67.608 13.9234C67.5878 13.8158 67.369 13.7182 67.396 13.8696Z" fill="#0669AB"/>
<path d="M69.4287 13.2575C69.5263 14.6203 69.6172 15.9831 69.6239 17.3493C69.6239 17.3628 69.8628 17.3224 69.8628 17.2585C69.8561 15.8923 69.7652 14.5295 69.6677 13.1666C69.6677 13.1464 69.4254 13.1969 69.4287 13.2575Z" fill="#0669AB"/>
<path d="M71.469 12.4595C71.5633 13.7921 71.6642 15.1213 71.7618 16.4538C71.7719 16.5716 72.0209 16.5278 72.0108 16.4033C71.9166 15.0708 71.8156 13.7416 71.7181 12.4091C71.708 12.2913 71.459 12.335 71.469 12.4595Z" fill="#0669AB"/>
<path d="M73.5241 11.5982C73.4299 12.6986 73.4265 13.8057 73.4265 14.9094C73.4265 14.9699 73.6553 15.0137 73.6553 15.0204C73.6553 13.9167 73.6587 12.8096 73.7529 11.7093C73.7563 11.6554 73.5241 11.5982 73.5241 11.5982Z" fill="#0669AB"/>
<path d="M73.915 15.8179C73.915 16.989 73.9218 18.1566 74.0126 19.3243C74.0194 19.4252 74.2515 19.5127 74.2414 19.3747C74.1506 18.2071 74.1439 17.0394 74.1439 15.8684C74.1439 15.7675 73.915 15.68 73.915 15.8179Z" fill="#0669AB"/>
<path d="M71.3073 16.6963C71.4015 18.0255 71.4049 19.3581 71.4049 20.6906C71.4049 20.8117 71.5933 20.906 71.5933 20.7377C71.5933 19.4052 71.5933 18.0726 71.4957 16.7434C71.489 16.6257 71.2938 16.5281 71.3073 16.6963Z" fill="#0669AB"/>
<path d="M68.1602 18.2744C68.4328 19.5228 68.5337 20.7779 68.4496 22.0566C68.4429 22.1509 68.6952 22.1845 68.702 22.097C68.7861 20.8049 68.6851 19.5463 68.4092 18.2811C68.3924 18.197 68.14 18.1801 68.1602 18.2777V18.2744Z" fill="#0669AB"/>
<path d="M66.0166 19.092C66.1041 20.226 66.1243 21.3668 66.2118 22.5008C66.2152 22.5479 66.4608 22.5008 66.4575 22.4335C66.37 21.2995 66.3498 20.1587 66.2623 19.0247C66.2589 18.9776 66.0133 19.0247 66.0166 19.092Z" fill="#0669AB"/>
<path d="M62.7299 20.2498C63.0125 21.5756 63.0125 22.9149 62.7299 24.2441C62.7198 24.2979 62.9183 24.4291 62.925 24.3921C63.2077 23.0663 63.2077 21.727 62.925 20.3979C62.9116 20.3306 62.7265 20.2397 62.7299 20.2498Z" fill="#0669AB"/>
<path d="M60.0742 21.0773C60.0742 22.1171 60.0641 23.1568 59.9766 24.1933C59.9732 24.2437 60.2222 24.2808 60.2256 24.2471C60.3131 23.2107 60.3232 22.1709 60.3232 21.1311C60.3232 21.0739 60.0742 21.0504 60.0742 21.0773Z" fill="#0669AB"/>
<path d="M55.2681 21.3229C55.4465 22.3863 55.4431 23.4362 55.2681 24.5029C55.258 24.5702 55.3893 24.725 55.3893 24.7149C55.571 23.6246 55.571 22.5545 55.3893 21.4643C55.3825 21.4205 55.2547 21.2119 55.2715 21.3229H55.2681Z" fill="#0669AB"/>
<path d="M50.8469 22.4774C51.1027 23.3153 51.1195 24.2777 51.0387 25.1425C51.0286 25.2636 51.2272 25.3948 51.2406 25.24C51.3281 24.3281 51.3113 23.3355 51.0421 22.4505C51.0017 22.3125 50.7998 22.3159 50.8469 22.4774Z" fill="#0669AB"/>
<path d="M46.6423 21.6598C46.8173 22.6895 46.8274 23.7125 46.7399 24.7523C46.7298 24.8599 46.9586 24.971 46.9687 24.8532C47.0595 23.7966 47.0494 22.7602 46.8711 21.7137C46.8543 21.6127 46.6187 21.5286 46.6423 21.6598Z" fill="#0669AB"/>
<path d="M43.9261 21.1753C44.1213 22.2958 44.2021 23.4197 44.1213 24.5571C44.1146 24.6648 44.3232 24.796 44.3333 24.6581C44.4174 23.5039 44.3333 22.3631 44.1381 21.2224C44.1179 21.1147 43.8992 21.0205 43.9261 21.1753Z" fill="#0669AB"/>
<path d="M42.1725 20.095C42.0817 21.165 42.075 22.2351 42.075 23.3085C42.075 23.3422 42.2869 23.2446 42.2869 23.184C42.2869 22.1106 42.2937 21.0405 42.3845 19.9705C42.3845 19.9435 42.1793 20.031 42.1725 20.095Z" fill="#0669AB"/>
<path d="M40.3078 19.4824C40.6006 20.6265 40.6914 21.811 40.6006 22.9887C40.5905 23.1032 40.8327 23.0258 40.8395 22.9181C40.9303 21.7403 40.8395 20.5558 40.5467 19.4117C40.5164 19.2906 40.2809 19.3815 40.3078 19.4824Z" fill="#0669AB"/>
<path d="M38.848 19.2032C39.0398 20.0074 39.1407 20.8319 39.3359 21.6395C39.3359 21.6529 39.5815 21.5823 39.5714 21.5452C39.3796 20.741 39.2787 19.9166 39.0835 19.109C39.0835 19.0955 38.8379 19.1662 38.848 19.2032Z" fill="#0669AB"/>
<path d="M45.1737 25.1256C45.1872 25.9063 45.268 26.6836 45.2713 27.4643C45.2713 27.4811 45.5203 27.4575 45.517 27.4071C45.5136 26.6264 45.4328 25.8491 45.4194 25.0684C45.4194 25.0482 45.1704 25.0751 45.1737 25.1256Z" fill="#0669AB"/>
<path d="M44.407 25.0516C44.3262 25.2602 44.3632 25.5227 44.3767 25.7414C44.4002 26.1015 44.444 26.4582 44.5012 26.8115C44.5012 26.8182 44.7334 26.7475 44.7266 26.6937C44.6728 26.3707 44.6324 26.0476 44.6089 25.7212C44.592 25.4857 44.5416 25.1761 44.6291 24.9473C44.6291 24.9506 44.4305 24.991 44.407 25.0516Z" fill="#0669AB"/>
<path d="M47.0391 25.2569C47.2309 26.1553 47.3285 27.0706 47.4294 27.9825C47.4294 28.0061 47.6583 27.9287 47.6482 27.8546C47.5472 26.9394 47.4496 26.0274 47.2578 25.129C47.2511 25.0987 47.0223 25.1896 47.0391 25.2569Z" fill="#0669AB"/>
<path d="M48.8954 25.3375C49.168 26.3874 49.2824 27.4574 49.38 28.5343C49.3867 28.6116 49.592 28.7294 49.5852 28.6722C49.4843 27.582 49.3699 26.5018 49.0973 25.4418C49.0805 25.3745 48.8719 25.25 48.8954 25.3409V25.3375Z" fill="#0669AB"/>
<path d="M52.2341 25.4519C52.4158 26.3874 52.5201 27.3296 52.6244 28.2751C52.6345 28.366 52.7926 28.5073 52.7758 28.3458C52.6715 27.4002 52.5672 26.4547 52.3855 25.5226C52.3686 25.4351 52.2038 25.2904 52.2341 25.4519Z" fill="#0669AB"/>
<path d="M55.1173 25.435C55.2183 26.4412 55.3091 27.4473 55.4101 28.4535C55.4168 28.5174 55.6389 28.5982 55.6322 28.5544C55.5312 27.5483 55.4404 26.5421 55.3394 25.536C55.3327 25.4721 55.1106 25.3913 55.1173 25.435Z" fill="#0669AB"/>
<path d="M57.5811 24.8125C57.682 25.8557 57.8604 26.8887 57.9714 27.9285C57.9781 27.9958 58.143 28.0967 58.143 28.1035C58.032 27.0603 57.8536 26.0306 57.7527 24.9875C57.7459 24.9202 57.5811 24.8192 57.5811 24.8125Z" fill="#0669AB"/>
<path d="M59.8022 24.6748C59.9099 25.8795 60.0849 27.074 60.1926 28.2787C60.2027 28.3931 60.418 28.5008 60.4046 28.346C60.2969 27.1413 60.1219 25.9468 60.0142 24.7421C60.0041 24.6277 59.7888 24.52 59.8022 24.6748Z" fill="#0669AB"/>
<path d="M62.4102 24.4223C62.4169 25.6303 62.5111 26.8316 62.7029 28.0262C62.7164 28.1036 62.9687 28.0767 62.9553 28.0094C62.7635 26.8148 62.6693 25.6135 62.6625 24.4055C62.6625 24.3348 62.4102 24.3449 62.4102 24.4223Z" fill="#0669AB"/>
<path d="M65.0491 23.7729C65.1602 25.0146 65.3486 26.2428 65.5371 27.4744C65.5573 27.609 65.7928 27.5148 65.7726 27.3903C65.5842 26.1587 65.3957 24.9305 65.2847 23.6888C65.2712 23.5542 65.0391 23.6484 65.0491 23.7729Z" fill="#0669AB"/>
<path d="M67.1138 23.5272C67.3056 24.7622 67.5075 25.9938 67.6993 27.2287C67.7195 27.3499 67.9214 27.4104 67.8945 27.2455C67.7027 26.0106 67.5008 24.779 67.309 23.544C67.2888 23.4229 67.0869 23.3623 67.1138 23.5272Z" fill="#0669AB"/>
<path d="M70.0241 22.4336C70.1318 23.6383 70.3068 24.8328 70.4145 26.0375C70.4246 26.162 70.6467 26.2562 70.6332 26.1015C70.5255 24.8968 70.3506 23.7022 70.2429 22.4975C70.2328 22.373 70.0107 22.2788 70.0241 22.4336Z" fill="#0669AB"/>
<path d="M72.0881 22.3021C72.1857 23.3722 72.2832 24.4456 72.3808 25.5157C72.3876 25.583 72.5693 25.7411 72.5625 25.6503C72.465 24.5802 72.3674 23.5068 72.2698 22.4367C72.2631 22.3694 72.0813 22.2113 72.0881 22.3021Z" fill="#0669AB"/>
<path d="M74.1003 21.387C74.1003 22.3628 74.1071 23.3353 74.1979 24.3078C74.2114 24.4424 74.4638 24.466 74.4503 24.3213C74.3594 23.3488 74.3527 22.3763 74.3527 21.4004C74.3527 21.2658 74.1003 21.2389 74.1003 21.387Z" fill="#0669AB"/>
<path d="M76.1826 19.9433C76.1893 20.9899 76.2836 22.033 76.3778 23.0762C76.3845 23.1367 76.5561 23.2983 76.5494 23.2209C76.4552 22.1878 76.3643 21.1581 76.3542 20.1217C76.3542 20.0477 76.1826 19.9131 76.1826 19.9467V19.9433Z" fill="#0669AB"/>
<path d="M78.1606 17.9749C78.1606 19.3175 78.1808 20.65 78.3558 21.9826C78.3625 22.0331 78.4702 22.2047 78.4668 22.1744C78.2918 20.8519 78.275 19.5261 78.2716 18.1936C78.2716 18.1229 78.1572 18.0018 78.1572 17.9749H78.1606Z" fill="#0669AB"/>
<path d="M79.066 17.8876C79.1635 18.86 79.2544 19.8325 79.2611 20.8084C79.2611 20.9295 79.5135 20.9463 79.5101 20.8084C79.5034 19.8292 79.4126 18.86 79.315 17.8876C79.3015 17.7664 79.0525 17.7496 79.066 17.8876Z" fill="#0669AB"/>
<path d="M38.939 29.5035C39.3327 30.4087 39.6053 31.3442 39.7197 32.3268C39.7231 32.3638 39.9754 32.3268 39.9687 32.2796C39.8577 31.2971 39.5817 30.3616 39.188 29.4564C39.1645 29.4026 38.9256 29.4766 38.939 29.5035Z" fill="#0669AB"/>
<path d="M41.0785 30.6642C41.267 31.7309 41.378 32.811 41.5665 33.8777C41.5867 33.9989 41.839 33.9652 41.8188 33.8441C41.6304 32.7774 41.5194 31.6972 41.3309 30.6305C41.3107 30.5094 41.0584 30.543 41.0785 30.6642Z" fill="#0669AB"/>
<path d="M43.536 31.2599C43.8187 32.3468 43.9297 33.4539 44.0239 34.5711C44.0307 34.6384 44.2326 34.6788 44.2326 34.7124C44.1383 33.5953 44.0273 32.4882 43.7446 31.4013C43.7278 31.3306 43.5461 31.3037 43.536 31.2599Z" fill="#0669AB"/>
<path d="M46.54 32.0776C46.5467 33.0366 46.6375 33.9855 46.8361 34.9244C46.8563 35.0186 47.0952 35.0724 47.0683 34.9412C46.8731 34.0158 46.7856 33.0837 46.7789 32.1381C46.7789 32.0372 46.5366 31.9598 46.54 32.0776Z" fill="#0669AB"/>
<path d="M49.1818 32.5286C49.1885 33.4539 49.2793 34.3591 49.4745 35.2643C49.488 35.3249 49.6899 35.3888 49.6899 35.3821C49.4981 34.4836 49.4039 33.5818 49.3971 32.6632C49.3971 32.5959 49.1818 32.5353 49.1818 32.5286Z" fill="#0669AB"/>
<path d="M51.7061 32.8417C51.8003 33.8815 51.9046 34.9179 51.9988 35.9577C51.9988 35.9779 52.2377 35.9207 52.231 35.8534C52.1368 34.8136 52.0325 33.7772 51.9383 32.7374C51.9383 32.7172 51.6993 32.7744 51.7061 32.8417Z" fill="#0669AB"/>
<path d="M54.2258 33.0905C54.4311 34.0259 54.6095 34.9614 54.7138 35.9137C54.7171 35.9574 54.9729 35.9373 54.9661 35.9002C54.8652 34.9479 54.6835 34.0091 54.4782 33.077C54.4681 33.0265 54.2191 33.0602 54.2258 33.0905Z" fill="#0669AB"/>
<path d="M56.4876 32.5587C56.6828 33.824 56.878 35.0926 57.0732 36.3578C57.0833 36.4218 57.2986 36.304 57.2885 36.2367C57.0934 34.9715 56.8982 33.7028 56.703 32.4376C56.6929 32.3737 56.4776 32.4914 56.4876 32.5587Z" fill="#0669AB"/>
<path d="M58.2337 32.2526C58.4255 33.6457 58.5298 35.0489 58.7216 36.442C58.7351 36.5429 58.9639 36.4386 58.9538 36.3511C58.762 34.958 58.6577 33.5548 58.4659 32.1617C58.4524 32.0608 58.2236 32.1617 58.2337 32.2526Z" fill="#0669AB"/>
<path d="M60.3637 32.4176C60.5488 33.6122 60.5622 34.8202 60.6564 36.0215C60.6632 36.1225 60.9155 36.0922 60.9088 35.9879C60.8146 34.7866 60.8011 33.5785 60.6161 32.384C60.5992 32.283 60.3502 32.3167 60.3637 32.4176Z" fill="#0669AB"/>
<path d="M62.8037 31.5491C62.8104 32.636 62.9114 33.7128 63.0998 34.7829C63.1167 34.8771 63.3556 34.7997 63.3387 34.6954C63.1537 33.6354 63.0561 32.5755 63.0494 31.502C63.0494 31.3876 62.8037 31.4516 62.8071 31.5491H62.8037Z" fill="#0669AB"/>
<path d="M65.0522 31.3239C65.1599 32.4344 65.3416 33.5381 65.5401 34.6351C65.5671 34.7764 65.7959 34.81 65.769 34.6485C65.5704 33.5482 65.3887 32.4478 65.281 31.3374C65.2676 31.1927 65.0387 31.159 65.0522 31.3239Z" fill="#0669AB"/>
<path d="M67.198 30.439C67.3865 31.7008 67.4975 32.9728 67.6859 34.238C67.7028 34.3525 67.9282 34.4231 67.9047 34.265C67.7162 33.0031 67.6052 31.7277 67.4167 30.4659C67.3999 30.3515 67.1745 30.2808 67.198 30.439Z" fill="#0669AB"/>
<path d="M69.3457 29.9376C69.4433 31.2028 69.5409 32.4714 69.6385 33.7367C69.6385 33.7198 69.8572 33.6593 69.8539 33.6021C69.7563 32.3368 69.6587 31.0682 69.5611 29.803C69.5611 29.8198 69.3424 29.8804 69.3457 29.9376Z" fill="#0669AB"/>
<path d="M71.3703 29.9543C71.4678 30.9268 71.5654 31.9027 71.663 32.8752C71.6697 32.9593 71.9221 32.966 71.9154 32.8987C71.8178 31.9262 71.7202 30.9504 71.6226 29.9779C71.6125 29.8938 71.3635 29.887 71.3703 29.9543Z" fill="#0669AB"/>
<path d="M73.9045 28.5241C73.817 29.5404 73.9079 30.5432 74.0997 31.5426C74.1064 31.5796 74.3588 31.5392 74.3521 31.5055C74.1603 30.5061 74.0694 29.5034 74.1569 28.4871C74.1569 28.4703 73.9113 28.4737 73.9045 28.5241Z" fill="#0669AB"/>
<path d="M7.87305 39.1543C8.0514 40.221 8.06822 41.2911 8.06822 42.3679C8.06822 42.4823 8.30714 42.4049 8.30714 42.3039C8.30714 41.2271 8.29031 40.1537 8.11197 39.0904C8.09178 38.9759 7.85623 39.0567 7.87305 39.1543Z" fill="#0669AB"/>
<path d="M9.52124 39.9922C9.61546 41.1228 9.60873 42.2467 9.52124 43.3774C9.51115 43.4985 9.76016 43.5524 9.76689 43.438C9.85438 42.2939 9.86447 41.1497 9.76689 40.0056C9.75679 39.8912 9.50778 39.8643 9.51788 39.9955L9.52124 39.9922Z" fill="#0669AB"/>
<path d="M10.306 39.6724C10.5887 40.9276 10.7771 42.1827 10.7939 43.4715C10.7939 43.559 11.0329 43.6398 11.0329 43.5388C11.0194 42.2534 10.8276 40.9949 10.5449 39.7397C10.5247 39.6522 10.2858 39.5849 10.306 39.6724Z" fill="#0669AB"/>
<path d="M12.1497 39.6086C12.3549 41.1027 12.6208 42.5867 12.7352 44.0875C12.7419 44.1918 12.9976 44.1884 12.9909 44.0875C12.8765 42.5833 12.6107 41.0993 12.4054 39.6086C12.3919 39.5043 12.1362 39.511 12.153 39.6086H12.1497Z" fill="#0669AB"/>
<path d="M15.017 40.0997C15.4006 41.3953 15.5891 42.7177 15.6934 44.0637C15.7035 44.1781 15.8886 44.2858 15.8785 44.1209C15.7741 42.7547 15.579 41.4121 15.192 40.0964C15.155 39.9685 14.9699 39.9416 15.0204 40.1031L15.017 40.0997Z" fill="#0669AB"/>
<path d="M17.9143 40.3455C18.0153 41.6814 18.123 43.014 18.3047 44.3398C18.3114 44.4003 18.5335 44.2893 18.5234 44.2287C18.3417 42.9029 18.2374 41.5704 18.1331 40.2345C18.1297 40.1772 17.9076 40.2816 17.9143 40.3455Z" fill="#0669AB"/>
<path d="M20.4373 39.6725C20.5416 41.3651 20.7368 43.051 20.9252 44.7368C20.9353 44.8142 21.1742 44.8849 21.1641 44.8008C20.9757 43.1149 20.7839 41.429 20.6762 39.7364C20.6728 39.659 20.4339 39.585 20.4373 39.6725Z" fill="#0669AB"/>
<path d="M22.5948 39.8373C22.7159 41.503 23.0625 43.1384 23.1803 44.804C23.1836 44.8713 23.3956 44.9757 23.3923 44.9319C23.2779 43.2662 22.9313 41.6275 22.8068 39.9652C22.8 39.8945 22.5914 39.7935 22.5948 39.8373Z" fill="#0669AB"/>
<path d="M24.349 40.0495C24.6317 41.5974 24.8235 43.1487 24.8369 44.7235C24.8369 44.8043 25.0455 44.9355 25.0455 44.8178C25.0321 43.2429 24.8403 41.6917 24.5576 40.1438C24.5442 40.0664 24.3288 39.9419 24.349 40.0495Z" fill="#0669AB"/>
<path d="M27 39.9215C27.0135 41.5468 27.1818 43.1654 27.1952 44.7907C27.1952 44.8546 27.3635 45.033 27.3601 44.9421C27.3466 43.3168 27.1784 41.6983 27.1649 40.073C27.1649 40.009 26.9967 39.8307 27 39.9215Z" fill="#0669AB"/>
<path d="M28.4431 39.262C28.6282 40.9782 28.7359 42.7011 28.8335 44.4239C28.8368 44.498 29.0387 44.6427 29.032 44.5316C28.9344 42.8087 28.8268 41.0858 28.6417 39.3697C28.6349 39.2957 28.4297 39.1543 28.4431 39.262Z" fill="#0669AB"/>
<path d="M30.5733 39.0296C30.6709 40.6885 30.7752 42.3441 30.9637 43.9963C30.9805 44.141 31.2093 44.1511 31.1891 43.9896C31.0007 42.3374 30.8964 40.6818 30.7988 39.0228C30.7887 38.8782 30.5632 38.8681 30.5733 39.0296Z" fill="#0669AB"/>
<path d="M32.9263 38.7133C33.2056 40.3285 33.4007 41.9505 33.5118 43.5825C33.5185 43.7104 33.7204 43.7844 33.7103 43.6195C33.6026 41.9841 33.4041 40.3622 33.1248 38.7504C33.1046 38.6292 32.8993 38.5485 32.9263 38.7133Z" fill="#0669AB"/>
<path d="M34.3799 38.5722C34.3866 39.9384 34.4775 41.3012 34.5751 42.664C34.5818 42.7414 34.7904 42.8524 34.787 42.7919C34.6895 41.429 34.5986 40.0662 34.5919 38.7C34.5919 38.6226 34.3799 38.5082 34.3799 38.5722Z" fill="#0669AB"/>
<path d="M36.8094 37.7139C36.7286 39.1138 36.8094 40.5069 36.907 41.9034C36.9137 41.9841 37.1358 41.8764 37.1291 41.7991C37.0281 40.4026 36.9507 39.0095 37.0315 37.6096C37.0349 37.539 36.8128 37.6365 36.8094 37.7139Z" fill="#0669AB"/>
<path d="M38.5508 37.9193V42.3039C38.5508 42.4082 38.7897 42.4856 38.7897 42.3678V37.9832C38.7897 37.8789 38.5508 37.8015 38.5508 37.9193Z" fill="#0669AB"/>
<path d="M39.7198 37.0443C39.6256 38.5855 39.6391 40.1132 39.8174 41.6477C39.8309 41.7688 40.0732 41.8092 40.0563 41.6611C39.8814 40.1469 39.8679 38.6292 39.9587 37.1083C39.9655 36.9871 39.7266 36.9064 39.7165 37.041L39.7198 37.0443Z" fill="#0669AB"/>
<path d="M40.689 36.8829C40.8741 38.0169 40.7832 39.1543 40.689 40.2917C40.6823 40.3725 40.9346 40.3792 40.9414 40.2917C41.0356 39.1543 41.1264 38.0169 40.9414 36.8829C40.9279 36.7955 40.6755 36.8089 40.689 36.8829Z" fill="#0669AB"/>
<path d="M2.12512 28.7429C2.13185 29.7187 2.21598 30.6912 2.22271 31.6637C2.22271 31.6637 2.46162 31.6301 2.46162 31.5762C2.45489 30.6004 2.37077 29.6279 2.36404 28.6554C2.36404 28.6554 2.12512 28.689 2.12512 28.7429Z" fill="#0669AB"/>
<path d="M3.70428 28.7227C3.62015 29.7861 3.70764 30.8259 4.0004 31.8556C4.01722 31.9094 4.20903 32.0406 4.18884 31.9733C3.89945 30.9571 3.81869 29.924 3.89945 28.8708C3.90618 28.8069 3.70428 28.6824 3.70091 28.7227H3.70428Z" fill="#0669AB"/>
<path d="M4.49394 28.9447C4.77997 30.0215 4.96504 31.1152 4.9785 32.2323C4.9785 32.3097 5.16021 32.478 5.16021 32.3703C5.14675 31.2363 4.96168 30.1292 4.67229 29.0356C4.6521 28.9616 4.46029 28.8101 4.49394 28.9447Z" fill="#0669AB"/>
<path d="M5.73533 29.4597C6.10212 30.624 6.21316 31.8253 6.21989 33.0434C6.21989 33.141 6.45544 33.2319 6.45544 33.1242C6.44871 31.8892 6.33767 30.6812 5.96415 29.5001C5.93723 29.4126 5.69832 29.3419 5.73533 29.4631V29.4597Z" fill="#0669AB"/>
<path d="M7.57355 29.5911C7.77209 30.8866 7.9538 32.1821 8.06148 33.4877C8.07157 33.6291 8.32058 33.5921 8.31049 33.4608C8.20281 32.1552 8.0211 30.8597 7.82256 29.5641C7.80237 29.4228 7.55336 29.4632 7.57355 29.5911Z" fill="#0669AB"/>
<path d="M9.32718 30.1697C9.43823 31.2431 9.60311 32.3098 9.71752 33.3833C9.72089 33.4203 9.97326 33.4001 9.9699 33.3665C9.85885 32.293 9.69397 31.2263 9.57956 30.1529C9.57619 30.1159 9.32382 30.136 9.32718 30.1697Z" fill="#0669AB"/>
<path d="M10.6897 29.8869C10.8984 31.0478 11.0666 32.2121 11.0801 33.3932C11.0801 33.5009 11.3325 33.4706 11.3325 33.3562C11.319 32.1751 11.1508 31.0108 10.9421 29.8499C10.9219 29.7388 10.6696 29.7759 10.6897 29.8869Z" fill="#0669AB"/>
<path d="M13.1369 29.5337C13.3388 31.0547 13.5205 32.5791 13.6248 34.1101C13.6282 34.1674 13.857 34.2448 13.8536 34.1976C13.7527 32.6666 13.5676 31.1422 13.3657 29.6212C13.359 29.5607 13.1301 29.4934 13.1369 29.5337Z" fill="#0669AB"/>
<path d="M15.085 29.8164C15.1826 30.9907 15.2869 32.1618 15.4753 33.3227C15.4888 33.4068 15.7176 33.3025 15.7041 33.2318C15.5191 32.0675 15.4114 30.8999 15.3138 29.7255C15.3071 29.6414 15.0783 29.7423 15.085 29.8164Z" fill="#0669AB"/>
<path d="M17.4141 29.9744C17.4276 31.5055 17.6059 33.0265 17.7069 34.5509C17.7169 34.6821 17.966 34.6787 17.9559 34.5374C17.8549 33.013 17.6766 31.4887 17.6631 29.961C17.6631 29.8331 17.4107 29.8331 17.4141 29.9744Z" fill="#0669AB"/>
<path d="M18.7857 29.7593C18.9001 31.0683 19.166 32.3571 19.3712 33.656C19.3914 33.7872 19.627 33.8377 19.6001 33.6795C19.3948 32.3807 19.1289 31.0952 19.0145 29.7829C19.0044 29.6516 18.7723 29.5978 18.7857 29.7593Z" fill="#0669AB"/>
<path d="M21.0265 29.5302C21.1342 30.7348 21.3092 31.9294 21.4169 33.1341C21.4236 33.2182 21.6524 33.3124 21.6457 33.2283C21.538 32.0236 21.363 30.8291 21.2553 29.6244C21.2486 29.5403 21.0198 29.446 21.0265 29.5302Z" fill="#0669AB"/>
<path d="M23.3617 28.9615C23.2675 30.2705 23.2675 31.5795 23.3617 32.8885C23.3718 33.0365 23.6006 33.0534 23.5905 32.8885C23.4996 31.5997 23.4996 30.3109 23.5905 29.0221C23.6006 28.8808 23.3718 28.8 23.3617 28.9615Z" fill="#0669AB"/>
<path d="M24.5235 28.6219C24.6278 30.089 24.8162 31.5461 25.0114 33.0065C25.0181 33.0671 25.2705 33.0334 25.2638 32.9695C25.0686 31.5124 24.8835 30.0554 24.7758 28.5849C24.7725 28.5277 24.5201 28.5546 24.5235 28.6219Z" fill="#0669AB"/>
<path d="M26.1118 28.8706C26.1185 29.9306 26.2262 30.9771 26.4079 32.0169C26.4314 32.1549 26.6165 32.1684 26.5862 32.0035C26.4079 30.9839 26.3069 29.9542 26.3002 28.9178C26.3002 28.7966 26.1084 28.7024 26.1084 28.8673L26.1118 28.8706Z" fill="#0669AB"/>
<path d="M28.2241 28.043C28.14 29.3116 28.2241 30.5769 28.3217 31.8421C28.3318 31.97 28.5741 31.906 28.5673 31.7916C28.4697 30.5264 28.3856 29.2611 28.4697 27.9925C28.4765 27.868 28.2342 27.9286 28.2241 28.043Z" fill="#0669AB"/>
<path d="M29.1973 27.5315C29.305 28.7261 29.5035 29.9005 29.7862 31.0648C29.8131 31.1826 30.0621 31.1422 30.0318 31.0109C29.7525 29.8635 29.5574 28.7059 29.4531 27.5281C29.443 27.4003 29.1872 27.407 29.1973 27.5281V27.5315Z" fill="#0669AB"/>
<path d="M30.2677 27.1312C30.5504 27.9523 30.5605 28.8037 30.5605 29.6651C30.5605 29.7055 30.8129 29.7156 30.8129 29.6887C30.8129 28.8306 30.8028 27.9759 30.5201 27.1548C30.4999 27.0976 30.2644 27.1279 30.2677 27.1312Z" fill="#0669AB"/>
<path d="M42.0908 44.821C42.6763 45.8204 42.922 47.0857 42.8513 48.2331C42.8446 48.361 43.0566 48.4754 43.0667 48.3173C43.1373 47.1025 42.8883 45.7767 42.2692 44.7167C42.1884 44.5787 42.0101 44.6797 42.0908 44.8176V44.821Z" fill="#0669AB"/>
<path d="M44.208 45.5007C44.2215 46.8702 44.3964 48.2263 44.5008 49.5925C44.5075 49.6632 44.7329 49.5656 44.7296 49.4983C44.6253 48.1355 44.4503 46.776 44.4368 45.4065C44.4368 45.3392 44.208 45.4334 44.208 45.5007Z" fill="#0669AB"/>
<path d="M45.1705 46.3452C45.4599 47.7282 45.6551 49.1213 45.756 50.5346C45.7661 50.6557 46.0185 50.6254 46.0084 50.5043C45.9074 49.0944 45.7123 47.7013 45.4229 46.3149C45.3993 46.1971 45.1469 46.2274 45.1705 46.3452Z" fill="#0669AB"/>
<path d="M47.9972 46.7961C48.0948 48.1354 48.1957 49.4747 48.4851 50.7904C48.5053 50.8779 48.751 50.925 48.7308 50.8308C48.4414 49.5151 48.3404 48.1792 48.2429 46.8365C48.2361 46.749 47.9905 46.6918 47.9972 46.7961Z" fill="#0669AB"/>
<path d="M49.3843 47.3816C49.8823 48.5224 50.1381 49.7169 50.1583 50.962C50.1583 51.0528 50.3736 51.1773 50.3702 51.0528C50.3501 49.791 50.091 48.5796 49.5862 47.4254C49.5492 47.3412 49.3237 47.2504 49.3843 47.385V47.3816Z" fill="#0669AB"/>
<path d="M52.9611 47.5868C53.1562 48.7545 53.3514 49.9255 53.5466 51.0932C53.5567 51.1504 53.8057 51.1369 53.799 51.1066C53.6038 49.939 53.4086 48.7679 53.2134 47.6003C53.2034 47.5431 52.9543 47.5565 52.9611 47.5868Z" fill="#0669AB"/>
<path d="M55.3368 46.3417C55.6329 48.0209 55.9122 49.7 56.0199 51.4061C56.0233 51.47 56.1949 51.5609 56.1982 51.5743C56.0906 49.8683 55.8113 48.1891 55.5151 46.51C55.505 46.4427 55.3402 46.3619 55.3368 46.3417Z" fill="#0669AB"/>
<path d="M58.6143 46.712C58.6311 48.418 58.9171 50.0972 59.1998 51.7763C59.22 51.8941 59.4724 51.921 59.4488 51.7898C59.1695 50.1106 58.8835 48.4315 58.8633 46.7254C58.8633 46.6077 58.6109 46.5774 58.6143 46.712Z" fill="#0669AB"/>
<path d="M61.2424 46.9377C61.3534 48.5394 61.6226 50.121 61.8279 51.7093C61.8447 51.8439 62.0937 51.8001 62.0769 51.6655C61.8716 50.0739 61.6058 48.4923 61.4914 46.894C61.4813 46.7594 61.2323 46.8031 61.2424 46.9377Z" fill="#0669AB"/>
<path d="M63.9706 46.2611C64.2431 47.8729 64.3542 49.5016 64.4585 51.1303C64.4652 51.2178 64.7109 51.1673 64.7041 51.0697C64.6032 49.4377 64.4888 47.8124 64.2162 46.2005C64.1994 46.1097 63.9537 46.1669 63.9706 46.2611Z" fill="#0669AB"/>
<path d="M66.2217 45.8944C66.326 47.4894 66.5111 49.0811 66.7096 50.666C66.7197 50.7501 66.9418 50.6357 66.9317 50.5617C66.7332 48.9734 66.5515 47.3851 66.4438 45.7901C66.4371 45.7093 66.215 45.817 66.2217 45.8944Z" fill="#0669AB"/>
<path d="M68.3958 44.9084C68.4058 46.702 68.5876 48.4854 68.7861 50.2655C68.7928 50.3362 68.9611 50.5145 68.9476 50.3799C68.7491 48.5998 68.5707 46.8164 68.5573 45.0228C68.5573 44.9488 68.3958 44.7705 68.3958 44.9084Z" fill="#0669AB"/>
<path d="M70.883 44.6898C71.3474 46.3184 71.6435 47.9606 71.6637 49.6565C71.6637 49.7844 71.9161 49.7541 71.9161 49.6229C71.8959 47.9269 71.6031 46.2848 71.1354 44.6561C71.0984 44.5316 70.8494 44.5653 70.883 44.6898Z" fill="#0669AB"/>
<path d="M73.3557 43.7305C73.6417 45.3053 73.8302 46.8869 73.8403 48.4852C73.8403 48.5593 74.022 48.6905 74.022 48.6501C74.0085 47.0383 73.8234 45.4433 73.534 43.8617C73.5239 43.8011 73.3389 43.6497 73.3557 43.7271V43.7305Z" fill="#0669AB"/>
<path d="M76.1494 43.4278C76.1629 45.0296 76.3513 46.6145 76.5398 48.1994C76.5566 48.3508 76.7955 48.2903 76.7787 48.159C76.5902 46.5707 76.4018 44.9858 76.3883 43.3874C76.3883 43.236 76.1494 43.2966 76.1494 43.4278Z" fill="#0669AB"/>
<path d="M78.1001 42.516C78.2111 44.0807 78.4769 45.6286 78.588 47.19C78.5981 47.338 78.8303 47.3851 78.8202 47.2202C78.7091 45.6555 78.4433 44.1076 78.3322 42.5462C78.3221 42.3982 78.09 42.3511 78.1001 42.5126V42.516Z" fill="#0669AB"/>
<path d="M80.5368 41.5636C80.7219 42.8254 80.8296 44.0907 80.9272 45.3626C80.9372 45.5107 81.1694 45.5107 81.1593 45.3492C81.0618 44.0806 80.9574 42.812 80.769 41.5501C80.7488 41.402 80.5133 41.402 80.5368 41.5636Z" fill="#0669AB"/>
<path d="M82.3879 28.6656C82.3004 29.5943 82.3913 30.5096 82.5831 31.4215C82.61 31.5427 82.8422 31.5898 82.8086 31.435C82.6201 30.5433 82.5293 29.6448 82.6167 28.7362C82.6268 28.6151 82.4014 28.5175 82.3879 28.6656Z" fill="#0669AB"/>
<path d="M84.3252 29.3722C84.3252 30.5466 84.342 31.7143 84.5204 32.8786C84.5305 32.9459 84.7795 32.9392 84.7727 32.8954C84.5944 31.7311 84.5776 30.5635 84.5776 29.3891C84.5776 29.3285 84.3252 29.3184 84.3252 29.3722Z" fill="#0669AB"/>
<path d="M85.8975 29.9173V33.326C85.8975 33.4135 86.1229 33.3126 86.1229 33.2251V29.8163C86.1229 29.7289 85.8975 29.8298 85.8975 29.9173Z" fill="#0669AB"/>
<path d="M87.7453 30.7989C87.8462 31.8421 88.0346 32.8718 88.1356 33.9149C88.1356 33.9351 88.3745 33.8746 88.3678 33.8106C88.2668 32.7675 88.0784 31.7378 87.9774 30.6946C87.9774 30.6744 87.7385 30.735 87.7453 30.7989Z" fill="#0669AB"/>
<path d="M90.077 30.6108C90.0838 31.6606 90.1746 32.7072 90.3698 33.7402C90.3832 33.8042 90.6222 33.8513 90.6121 33.7873C90.4169 32.7644 90.3294 31.7246 90.3193 30.6814C90.3193 30.6074 90.077 30.5637 90.077 30.6074V30.6108Z" fill="#0669AB"/>
<path d="M92.1369 30.5129C92.2412 31.7647 92.4263 33.0031 92.7224 34.2245C92.7291 34.2515 92.9512 34.1539 92.9344 34.0866C92.6383 32.8718 92.4532 31.6402 92.3522 30.3952C92.3489 30.3481 92.1301 30.4524 92.1369 30.5129Z" fill="#0669AB"/>
<path d="M94.2655 30.587C94.4573 31.7816 94.5616 32.9863 94.6558 34.191C94.6625 34.2684 94.9048 34.2112 94.8981 34.1169C94.8039 32.9123 94.6996 31.7076 94.5077 30.513C94.4943 30.4323 94.2486 30.4962 94.2655 30.587Z" fill="#0669AB"/>
<path d="M96.6115 30.5027C96.5341 31.7747 96.7124 33.0029 97.0994 34.2143C97.1095 34.248 97.3417 34.1504 97.3249 34.0966C96.9413 32.8919 96.7595 31.6704 96.8369 30.4051C96.8369 30.3681 96.6148 30.4455 96.6115 30.5061V30.5027Z" fill="#0669AB"/>
<path d="M98.6576 30.0147C98.9335 31.1386 99.1388 32.2692 99.2431 33.4234C99.2498 33.4874 99.4719 33.5681 99.4685 33.521C99.3642 32.3668 99.1589 31.2362 98.883 30.1123C98.8662 30.045 98.6475 29.9777 98.6576 30.0147Z" fill="#0669AB"/>
<path d="M101.221 30.1965C101.134 31.4247 101.232 32.6294 101.518 33.8273C101.538 33.9148 101.709 34.0561 101.672 33.8946C101.393 32.7169 101.295 31.5256 101.383 30.3176C101.39 30.2368 101.235 30.0518 101.225 30.1965H101.221Z" fill="#0669AB"/>
<path d="M103.709 30.062C103.628 31.3037 103.709 32.5353 103.904 33.7635C103.918 33.8476 104.17 33.8342 104.157 33.7635C103.961 32.5353 103.881 31.3037 103.961 30.062C103.965 29.9879 103.712 29.9812 103.706 30.062H103.709Z" fill="#0669AB"/>
<path d="M105.479 30.7149C105.486 31.9263 105.594 33.1209 105.772 34.3188C105.772 34.3121 105.994 34.2381 105.988 34.1842C105.809 32.9897 105.702 31.7917 105.695 30.5803C105.695 30.6005 105.479 30.6544 105.479 30.7149Z" fill="#0669AB"/>
<path d="M107.215 30.1697C107.134 31.3172 107.215 32.4478 107.41 33.5785C107.42 33.6289 107.669 33.5986 107.662 33.5583C107.464 32.4276 107.386 31.297 107.467 30.1495C107.467 30.1159 107.218 30.1125 107.215 30.1697Z" fill="#0669AB"/>
<path d="M109.065 29.1602C109.22 30.422 109.348 31.6906 109.456 32.9593C109.462 33.0266 109.708 33.0434 109.705 33.0131C109.597 31.7445 109.469 30.4792 109.314 29.214C109.308 29.1467 109.062 29.1332 109.065 29.1602Z" fill="#0669AB"/>
<path d="M111.512 28.8505C111.707 29.9744 111.798 31.1118 111.805 32.2492C111.805 32.3165 112.033 32.3703 112.033 32.3569C112.027 31.2094 111.936 30.0687 111.741 28.938C111.73 28.8775 111.508 28.8169 111.512 28.8472V28.8505Z" fill="#0669AB"/>
<path d="M113.005 28.8372C113.093 29.5808 113.103 30.3279 113.103 31.0783C113.103 31.1557 113.268 31.3306 113.268 31.1893C113.268 30.4389 113.258 29.6952 113.17 28.9482C113.16 28.8742 112.992 28.6992 113.005 28.8372Z" fill="#0669AB"/>
<path d="M80.0459 20.4818C80.0459 21.1783 80.0627 21.8614 80.2411 22.5378C80.2545 22.5916 80.4901 22.6253 80.48 22.5916C80.3016 21.922 80.2882 21.2423 80.2882 20.5558C80.2882 20.4952 80.0459 20.4582 80.0459 20.4818Z" fill="#0669AB"/>
<path d="M81.3478 20.0545C81.3478 20.9327 81.3545 21.811 81.4454 22.6859C81.4521 22.7465 81.6237 22.9114 81.617 22.8306C81.5261 21.9557 81.5194 21.0808 81.5194 20.1992C81.5194 20.1386 81.3478 19.9703 81.3511 20.0545H81.3478Z" fill="#0669AB"/>
<path d="M83.2627 20.2866C83.2627 21.4577 83.2694 22.6253 83.3603 23.793C83.367 23.8838 83.6026 23.9646 83.5958 23.867C83.505 22.6993 83.4982 21.5317 83.4982 20.3607C83.4982 20.2698 83.2627 20.1857 83.2627 20.2866Z" fill="#0669AB"/>
<path d="M84.7158 21.1044C84.8134 22.0029 84.9009 22.9047 84.911 23.8099C84.911 23.9243 85.1634 23.9546 85.1634 23.8502C85.1566 22.9282 85.0691 22.0163 84.9682 21.101C84.9581 20.9967 84.7057 20.9833 84.7192 21.1044H84.7158Z" fill="#0669AB"/>
<path d="M87.6612 20.8416C87.7588 21.8208 87.8631 22.7967 88.0515 23.7624C88.065 23.8297 88.2601 23.9138 88.2568 23.897C88.0717 22.9313 87.964 21.9554 87.8664 20.9762C87.8597 20.9123 87.6578 20.818 87.6612 20.8416Z" fill="#0669AB"/>
<path d="M89.9782 21.5484C89.884 22.2046 89.9782 22.8742 90.1767 23.5035C90.1935 23.5607 90.419 23.5876 90.4123 23.5674C90.2137 22.9449 90.1262 22.2786 90.2205 21.6292C90.2272 21.5787 89.9849 21.5215 89.9782 21.5484Z" fill="#0669AB"/>
<path d="M91.9885 20.8148C92.0928 21.5988 92.2745 22.3694 92.3788 23.1535C92.3855 23.2039 92.5033 23.3789 92.5 23.3385C92.3956 22.5545 92.2139 21.7839 92.1096 20.9998C92.1029 20.9494 91.9851 20.7744 91.9885 20.8148Z" fill="#0669AB"/>
<path d="M94.4582 20.5828C94.3707 21.4072 94.4515 22.2216 94.5524 23.0426C94.5659 23.1537 94.8149 23.1873 94.8014 23.0628C94.7039 22.2619 94.6164 21.4577 94.7039 20.6501C94.7173 20.5323 94.4717 20.4718 94.4582 20.5828Z" fill="#0669AB"/>
<path d="M95.9293 20.3843C96.1379 21.2188 96.3129 22.0601 96.4172 22.9181C96.4172 22.9215 96.6494 22.8576 96.6427 22.797C96.5417 21.9423 96.3634 21.101 96.1547 20.2632C96.1514 20.2497 95.9192 20.3338 95.9293 20.3843Z" fill="#0669AB"/>
<path d="M98.1699 19.5869C98.1767 20.4349 98.2709 21.2761 98.3651 22.1208C98.3718 22.1881 98.5939 22.2251 98.5939 22.2318C98.4997 21.3872 98.4055 20.5493 98.3988 19.698C98.3988 19.634 98.1699 19.5869 98.1699 19.5869Z" fill="#0669AB"/>
<path d="M100.296 19.2535C100.205 20.0948 100.309 20.9226 100.592 21.7167C100.635 21.8412 100.884 21.7941 100.834 21.6561C100.558 20.8755 100.457 20.0712 100.548 19.2502C100.561 19.1156 100.309 19.1189 100.296 19.2535Z" fill="#0669AB"/>
<path d="M101.802 19.4928C101.893 20.1725 101.906 20.859 101.997 21.5387C102.007 21.6127 102.186 21.7776 102.169 21.6396C102.078 20.9599 102.064 20.2734 101.974 19.5937C101.963 19.5197 101.785 19.3548 101.802 19.4928Z" fill="#0669AB"/>
<path d="M103.126 18.5706C103.325 19.395 103.409 20.2329 103.415 21.0809C103.415 21.1885 103.668 21.2188 103.668 21.1179C103.661 20.2564 103.574 19.4051 103.375 18.5638C103.351 18.4696 103.099 18.4562 103.126 18.5638V18.5706Z" fill="#0669AB"/>
</g>
</svg>
